<svg width="50" height="50" viewBox="0 0 50 50" fill="none" xmlns="http://www.w3.org/2000/svg">
    <rect x="0.5" y="0.5" width="49" height="49" rx="4.5" fill="#1E40AF"/>
    <rect x="0.5" y="0.5" width="49" height="49" rx="4.5" stroke="#1E3A8A"/>
    <path d="M25.95 33.6167L25.8 33.8C25.6889 33.9111 25.5 34.0556 25.2333 34.2333C24.9778 34.4 24.6667 34.5722 24.3 34.75C23.9444 34.9167 23.4667 35.0556 22.8667 35.1667C22.2667 35.2889 21.6222 35.35 20.9333 35.35C19.4778 35.35 18.2333 35.1111 17.2 34.6333C16.1667 34.1444 15.3556 33.4389 14.7667 32.5167C14.1889 31.5833 13.7722 30.5333 13.5167 29.3667C13.2611 28.1889 13.1333 26.8278 13.1333 25.2833C13.1333 23.6389 13.2611 22.2222 13.5167 21.0333C13.7722 19.8333 14.1944 18.7833 14.7833 17.8833C15.3833 16.9722 16.2056 16.2889 17.25 15.8333C18.2944 15.3778 19.5667 15.15 21.0667 15.15C21.7556 15.15 22.4 15.2111 23 15.3333C23.6111 15.4556 24.0889 15.5944 24.4333 15.75C24.7889 15.9056 25.1056 16.0833 25.3833 16.2833C25.6722 16.4833 25.85 16.6222 25.9167 16.7C25.9944 16.7778 26.05 16.8389 26.0833 16.8833L25.8333 20.7167H23.3L22.4333 18.7333C22.2333 18.6778 22.0667 18.65 21.9333 18.65C21.1889 18.65 20.6167 18.8222 20.2167 19.1667C19.8167 19.5 19.5111 20.1611 19.3 21.15C19.0889 22.1278 18.9833 23.5389 18.9833 25.3833C18.9833 26.4833 19.05 27.4444 19.1833 28.2667C19.3278 29.0889 19.5 29.7222 19.7 30.1667C19.9 30.6 20.1389 30.95 20.4167 31.2167C20.6944 31.4833 20.9444 31.6556 21.1667 31.7333C21.3889 31.8 21.6278 31.8333 21.8833 31.8333C22.45 31.8333 23.0444 31.7667 23.6667 31.6333C24.2889 31.4889 24.8 31.2722 25.2 30.9833L25.95 33.6167ZM30.885 35.3167C30.0739 35.3167 29.3406 35.2111 28.685 35C28.0295 34.7778 27.585 34.5556 27.3517 34.3333L27.3017 30.8833C27.6684 31.0833 27.9628 31.2167 28.185 31.2833C28.4072 31.35 28.6961 31.3833 29.0517 31.3833C29.6517 31.3833 30.1239 31.2056 30.4684 30.85C30.8239 30.4944 31.0017 29.8944 31.0017 29.05V16.9333L30.2017 15.4667H36.4184V28.7333C36.4184 29.5111 36.3739 30.2056 36.285 30.8167C36.2072 31.4167 36.0461 32.0111 35.8017 32.6C35.5572 33.1778 35.235 33.6611 34.835 34.05C34.435 34.4278 33.9017 34.7333 33.235 34.9667C32.5684 35.2 31.785 35.3167 30.885 35.3167Z" fill="white"/>
</svg>
