<svg width="226" height="50" viewBox="0 0 226 50" fill="none" xmlns="http://www.w3.org/2000/svg">
<rect x="0.5" y="0.5" width="49" height="49" rx="4.5" fill="white"/>
<rect x="0.5" y="0.5" width="49" height="49" rx="4.5" stroke="white"/>
<path d="M25.95 33.6167L25.8 33.8C25.6889 33.9111 25.5 34.0556 25.2333 34.2333C24.9778 34.4 24.6667 34.5722 24.3 34.75C23.9444 34.9167 23.4667 35.0556 22.8667 35.1667C22.2667 35.2889 21.6222 35.35 20.9333 35.35C19.4778 35.35 18.2333 35.1111 17.2 34.6333C16.1667 34.1444 15.3556 33.4389 14.7667 32.5167C14.1889 31.5833 13.7722 30.5333 13.5167 29.3667C13.2611 28.1889 13.1333 26.8278 13.1333 25.2833C13.1333 23.6389 13.2611 22.2222 13.5167 21.0333C13.7722 19.8333 14.1944 18.7833 14.7833 17.8833C15.3833 16.9722 16.2056 16.2889 17.25 15.8333C18.2944 15.3778 19.5667 15.15 21.0667 15.15C21.7556 15.15 22.4 15.2111 23 15.3333C23.6111 15.4556 24.0889 15.5944 24.4333 15.75C24.7889 15.9056 25.1056 16.0833 25.3833 16.2833C25.6722 16.4833 25.85 16.6222 25.9167 16.7C25.9944 16.7778 26.05 16.8389 26.0833 16.8833L25.8333 20.7167H23.3L22.4333 18.7333C22.2333 18.6778 22.0667 18.65 21.9333 18.65C21.1889 18.65 20.6167 18.8222 20.2167 19.1667C19.8167 19.5 19.5111 20.1611 19.3 21.15C19.0889 22.1278 18.9833 23.5389 18.9833 25.3833C18.9833 26.4833 19.05 27.4444 19.1833 28.2667C19.3278 29.0889 19.5 29.7222 19.7 30.1667C19.9 30.6 20.1389 30.95 20.4167 31.2167C20.6944 31.4833 20.9444 31.6556 21.1667 31.7333C21.3889 31.8 21.6278 31.8333 21.8833 31.8333C22.45 31.8333 23.0444 31.7667 23.6667 31.6333C24.2889 31.4889 24.8 31.2722 25.2 30.9833L25.95 33.6167ZM30.885 35.3167C30.0739 35.3167 29.3406 35.2111 28.685 35C28.0295 34.7778 27.585 34.5556 27.3517 34.3333L27.3017 30.8833C27.6684 31.0833 27.9628 31.2167 28.185 31.2833C28.4072 31.35 28.6961 31.3833 29.0517 31.3833C29.6517 31.3833 30.1239 31.2056 30.4684 30.85C30.8239 30.4944 31.0017 29.8944 31.0017 29.05V16.9333L30.2017 15.4667H36.4184V28.7333C36.4184 29.5111 36.3739 30.2056 36.285 30.8167C36.2072 31.4167 36.0461 32.0111 35.8017 32.6C35.5572 33.1778 35.235 33.6611 34.835 34.05C34.435 34.4278 33.9017 34.7333 33.235 34.9667C32.5684 35.2 31.785 35.3167 30.885 35.3167Z" fill="#1E40AF"/>
<path d="M79.464 38.576C77.112 38.576 75.024 38.048 73.2 36.992C71.4 35.912 69.996 34.376 68.988 32.384C67.98 30.368 67.476 27.992 67.476 25.256C67.476 22.568 67.968 20.216 68.952 18.2C69.936 16.184 71.34 14.624 73.164 13.52C74.988 12.416 77.112 11.864 79.536 11.864C85.992 11.864 89.796 15.032 90.948 21.368L85.26 21.584C84.948 19.952 84.3 18.692 83.316 17.804C82.356 16.916 81.096 16.472 79.536 16.472C77.52 16.472 75.936 17.264 74.784 18.848C73.656 20.432 73.092 22.568 73.092 25.256C73.092 27.944 73.668 30.068 74.82 31.628C75.972 33.188 77.532 33.968 79.5 33.968C81.18 33.968 82.5 33.5 83.46 32.564C84.444 31.604 85.068 30.236 85.332 28.46L91.056 28.676C90.528 31.844 89.28 34.292 87.312 36.02C85.344 37.724 82.728 38.576 79.464 38.576ZM99.3613 38C96.0013 38 94.3213 36.32 94.3213 32.96V12.44H99.7213V32.384C99.7213 32.936 99.8413 33.344 100.081 33.608C100.345 33.848 100.741 33.968 101.269 33.968H102.565V38H99.3613ZM106.134 18.704H111.534V38H106.134V18.704ZM106.026 12.008H111.606V16.328H106.026V12.008ZM124.938 38.432C122.97 38.432 121.242 38.024 119.754 37.208C118.29 36.368 117.15 35.192 116.334 33.68C115.542 32.144 115.146 30.368 115.146 28.352C115.146 26.336 115.542 24.572 116.334 23.06C117.15 21.524 118.29 20.348 119.754 19.532C121.242 18.692 122.97 18.272 124.938 18.272C127.53 18.272 129.678 18.944 131.382 20.288C133.086 21.632 134.082 23.48 134.37 25.832L128.79 26.084C128.622 24.908 128.19 24.008 127.494 23.384C126.822 22.76 125.97 22.448 124.938 22.448C123.594 22.448 122.55 22.964 121.806 23.996C121.062 25.028 120.69 26.48 120.69 28.352C120.69 30.224 121.062 31.688 121.806 32.744C122.55 33.776 123.594 34.292 124.938 34.292C126.018 34.292 126.894 33.968 127.566 33.32C128.238 32.672 128.646 31.712 128.79 30.44L134.37 30.656C134.106 33.032 133.122 34.928 131.418 36.344C129.714 37.736 127.554 38.432 124.938 38.432ZM137.423 12.44H142.823V26.624L149.987 18.704H156.467L148.979 26.66L156.683 38H150.779L145.487 29.72L142.823 32.564V38H137.423V12.44ZM169.479 38.576C167.535 38.576 165.867 38.168 164.475 37.352C163.083 36.512 162.015 35.372 161.271 33.932C160.527 32.468 160.143 30.788 160.119 28.892L165.627 28.64C165.651 30.416 165.987 31.748 166.635 32.636C167.307 33.524 168.255 33.968 169.479 33.968C170.703 33.968 171.651 33.536 172.323 32.672C172.995 31.808 173.331 30.524 173.331 28.82V12.44H178.803V28.82C178.803 30.788 178.407 32.504 177.615 33.968C176.847 35.432 175.755 36.572 174.339 37.388C172.947 38.18 171.327 38.576 169.479 38.576ZM192.122 38.432C190.178 38.432 188.462 38.024 186.974 37.208C185.486 36.368 184.334 35.192 183.518 33.68C182.726 32.144 182.33 30.368 182.33 28.352C182.33 26.336 182.738 24.572 183.554 23.06C184.37 21.524 185.51 20.348 186.974 19.532C188.462 18.692 190.178 18.272 192.122 18.272C194.066 18.272 195.77 18.692 197.234 19.532C198.722 20.348 199.874 21.524 200.69 23.06C201.506 24.572 201.914 26.336 201.914 28.352C201.914 30.368 201.506 32.144 200.69 33.68C199.898 35.192 198.758 36.368 197.27 37.208C195.782 38.024 194.066 38.432 192.122 38.432ZM192.122 34.292C193.466 34.292 194.498 33.776 195.218 32.744C195.962 31.688 196.334 30.224 196.334 28.352C196.334 26.48 195.962 25.028 195.218 23.996C194.498 22.94 193.466 22.412 192.122 22.412C190.778 22.412 189.734 22.94 188.99 23.996C188.246 25.028 187.874 26.48 187.874 28.352C187.874 30.224 188.246 31.688 188.99 32.744C189.734 33.776 190.778 34.292 192.122 34.292ZM216.327 38.432C214.983 38.432 213.807 38.156 212.799 37.604C211.815 37.028 211.047 36.212 210.495 35.156L210.387 38H205.239V12.44H210.639V21.44C211.167 20.504 211.923 19.748 212.907 19.172C213.915 18.572 215.055 18.272 216.327 18.272C217.935 18.272 219.339 18.692 220.539 19.532C221.763 20.348 222.699 21.524 223.347 23.06C224.019 24.572 224.355 26.336 224.355 28.352C224.355 30.368 224.019 32.144 223.347 33.68C222.699 35.192 221.763 36.368 220.539 37.208C219.339 38.024 217.935 38.432 216.327 38.432ZM214.815 34.292C216.039 34.292 217.011 33.764 217.731 32.708C218.451 31.652 218.811 30.2 218.811 28.352C218.811 26.504 218.451 25.052 217.731 23.996C217.035 22.94 216.075 22.412 214.851 22.412C213.531 22.412 212.499 22.94 211.755 23.996C211.011 25.028 210.639 26.48 210.639 28.352C210.639 30.2 210.999 31.652 211.719 32.708C212.463 33.764 213.495 34.292 214.815 34.292Z" fill="white"/>
</svg>
