<svg width="80" height="66" viewBox="0 0 80 66" fill="none" xmlns="http://www.w3.org/2000/svg">
<rect x="25.5" y="0.5" width="29" height="29" rx="4.5" fill="#F9FAFB"/>
<rect x="25.5" y="0.5" width="29" height="29" rx="4.5" stroke="#E5E7EB"/>
<path d="M40.608 20.6147L40.512 20.732C40.4409 20.8031 40.32 20.8956 40.1493 21.0093C39.9858 21.116 39.7867 21.2262 39.552 21.34C39.3244 21.4467 39.0187 21.5356 38.6347 21.6067C38.2507 21.6849 37.8382 21.724 37.3973 21.724C36.4658 21.724 35.6693 21.5711 35.008 21.2653C34.3467 20.9524 33.8276 20.5009 33.4507 19.9107C33.0809 19.3133 32.8142 18.6413 32.6507 17.8947C32.4871 17.1409 32.4053 16.2698 32.4053 15.2813C32.4053 14.2289 32.4871 13.3222 32.6507 12.5613C32.8142 11.7933 33.0844 11.1213 33.4613 10.5453C33.8453 9.96222 34.3716 9.52489 35.04 9.23333C35.7084 8.94178 36.5227 8.796 37.4827 8.796C37.9236 8.796 38.336 8.83511 38.72 8.91333C39.1111 8.99156 39.4169 9.08044 39.6373 9.18C39.8649 9.27956 40.0676 9.39333 40.2453 9.52133C40.4302 9.64933 40.544 9.73822 40.5867 9.788C40.6364 9.83778 40.672 9.87689 40.6933 9.90533L40.5333 12.3587H38.912L38.3573 11.0893C38.2293 11.0538 38.1227 11.036 38.0373 11.036C37.5609 11.036 37.1947 11.1462 36.9387 11.3667C36.6827 11.58 36.4871 12.0031 36.352 12.636C36.2169 13.2618 36.1493 14.1649 36.1493 15.3453C36.1493 16.0493 36.192 16.6644 36.2773 17.1907C36.3698 17.7169 36.48 18.1222 36.608 18.4067C36.736 18.684 36.8889 18.908 37.0667 19.0787C37.2444 19.2493 37.4044 19.3596 37.5467 19.4093C37.6889 19.452 37.8418 19.4733 38.0053 19.4733C38.368 19.4733 38.7484 19.4307 39.1467 19.3453C39.5449 19.2529 39.872 19.1142 40.128 18.9293L40.608 20.6147ZM43.7664 21.7027C43.2473 21.7027 42.778 21.6351 42.3584 21.5C41.9389 21.3578 41.6544 21.2156 41.5051 21.0733L41.4731 18.8653C41.7077 18.9933 41.8962 19.0787 42.0384 19.1213C42.1806 19.164 42.3655 19.1853 42.5931 19.1853C42.9771 19.1853 43.2793 19.0716 43.4997 18.844C43.7273 18.6164 43.8411 18.2324 43.8411 17.692V9.93733L43.3291 8.99867H47.3077V17.4893C47.3077 17.9871 47.2793 18.4316 47.2224 18.8227C47.1726 19.2067 47.0695 19.5871 46.9131 19.964C46.7566 20.3338 46.5504 20.6431 46.2944 20.892C46.0384 21.1338 45.6971 21.3293 45.2704 21.4787C44.8438 21.628 44.3424 21.7027 43.7664 21.7027Z" fill="#145344"/>
<path d="M6.732 58.288C5.556 58.288 4.512 58.024 3.6 57.496C2.7 56.956 1.998 56.188 1.494 55.192C0.99 54.184 0.738 52.996 0.738 51.628C0.738 50.284 0.984 49.108 1.476 48.1C1.968 47.092 2.67 46.312 3.582 45.76C4.494 45.208 5.556 44.932 6.768 44.932C9.996 44.932 11.898 46.516 12.474 49.684L9.63 49.792C9.474 48.976 9.15 48.346 8.658 47.902C8.178 47.458 7.548 47.236 6.768 47.236C5.76 47.236 4.968 47.632 4.392 48.424C3.828 49.216 3.546 50.284 3.546 51.628C3.546 52.972 3.834 54.034 4.41 54.814C4.986 55.594 5.766 55.984 6.75 55.984C7.59 55.984 8.25 55.75 8.73 55.282C9.222 54.802 9.534 54.118 9.666 53.23L12.528 53.338C12.264 54.922 11.64 56.146 10.656 57.01C9.672 57.862 8.364 58.288 6.732 58.288ZM16.6807 58C15.0007 58 14.1607 57.16 14.1607 55.48V45.22H16.8607V55.192C16.8607 55.468 16.9207 55.672 17.0407 55.804C17.1727 55.924 17.3707 55.984 17.6347 55.984H18.2827V58H16.6807ZM20.0669 48.352H22.7669V58H20.0669V48.352ZM20.0129 45.004H22.8029V47.164H20.0129V45.004ZM29.4691 58.216C28.4851 58.216 27.6211 58.012 26.8771 57.604C26.1451 57.184 25.5751 56.596 25.1671 55.84C24.7711 55.072 24.5731 54.184 24.5731 53.176C24.5731 52.168 24.7711 51.286 25.1671 50.53C25.5751 49.762 26.1451 49.174 26.8771 48.766C27.6211 48.346 28.4851 48.136 29.4691 48.136C30.7651 48.136 31.8391 48.472 32.6911 49.144C33.5431 49.816 34.0411 50.74 34.1851 51.916L31.3951 52.042C31.3111 51.454 31.0951 51.004 30.7471 50.692C30.4111 50.38 29.9851 50.224 29.4691 50.224C28.7971 50.224 28.2751 50.482 27.9031 50.998C27.5311 51.514 27.3451 52.24 27.3451 53.176C27.3451 54.112 27.5311 54.844 27.9031 55.372C28.2751 55.888 28.7971 56.146 29.4691 56.146C30.0091 56.146 30.4471 55.984 30.7831 55.66C31.1191 55.336 31.3231 54.856 31.3951 54.22L34.1851 54.328C34.0531 55.516 33.5611 56.464 32.7091 57.172C31.8571 57.868 30.7771 58.216 29.4691 58.216ZM35.7114 45.22H38.4114V52.312L41.9934 48.352H45.2334L41.4894 52.33L45.3414 58H42.3894L39.7434 53.86L38.4114 55.282V58H35.7114V45.22ZM51.7397 58.288C50.7677 58.288 49.9337 58.084 49.2377 57.676C48.5417 57.256 48.0077 56.686 47.6357 55.966C47.2637 55.234 47.0717 54.394 47.0597 53.446L49.8137 53.32C49.8257 54.208 49.9937 54.874 50.3177 55.318C50.6537 55.762 51.1277 55.984 51.7397 55.984C52.3517 55.984 52.8257 55.768 53.1617 55.336C53.4977 54.904 53.6657 54.262 53.6657 53.41V45.22H56.4017V53.41C56.4017 54.394 56.2037 55.252 55.8077 55.984C55.4237 56.716 54.8777 57.286 54.1697 57.694C53.4737 58.09 52.6637 58.288 51.7397 58.288ZM63.0609 58.216C62.0889 58.216 61.2309 58.012 60.4869 57.604C59.7429 57.184 59.1669 56.596 58.7589 55.84C58.3629 55.072 58.1649 54.184 58.1649 53.176C58.1649 52.168 58.3689 51.286 58.7769 50.53C59.1849 49.762 59.7549 49.174 60.4869 48.766C61.2309 48.346 62.0889 48.136 63.0609 48.136C64.0329 48.136 64.8849 48.346 65.6169 48.766C66.3609 49.174 66.9369 49.762 67.3449 50.53C67.7529 51.286 67.9569 52.168 67.9569 53.176C67.9569 54.184 67.7529 55.072 67.3449 55.84C66.9489 56.596 66.3789 57.184 65.6349 57.604C64.8909 58.012 64.0329 58.216 63.0609 58.216ZM63.0609 56.146C63.7329 56.146 64.2489 55.888 64.6089 55.372C64.9809 54.844 65.1669 54.112 65.1669 53.176C65.1669 52.24 64.9809 51.514 64.6089 50.998C64.2489 50.47 63.7329 50.206 63.0609 50.206C62.3889 50.206 61.8669 50.47 61.4949 50.998C61.1229 51.514 60.9369 52.24 60.9369 53.176C60.9369 54.112 61.1229 54.844 61.4949 55.372C61.8669 55.888 62.3889 56.146 63.0609 56.146ZM75.1636 58.216C74.4916 58.216 73.9036 58.078 73.3996 57.802C72.9076 57.514 72.5236 57.106 72.2476 56.578L72.1936 58H69.6196V45.22H72.3196V49.72C72.5836 49.252 72.9616 48.874 73.4536 48.586C73.9576 48.286 74.5276 48.136 75.1636 48.136C75.9676 48.136 76.6696 48.346 77.2696 48.766C77.8816 49.174 78.3496 49.762 78.6736 50.53C79.0096 51.286 79.1776 52.168 79.1776 53.176C79.1776 54.184 79.0096 55.072 78.6736 55.84C78.3496 56.596 77.8816 57.184 77.2696 57.604C76.6696 58.012 75.9676 58.216 75.1636 58.216ZM74.4076 56.146C75.0196 56.146 75.5056 55.882 75.8656 55.354C76.2256 54.826 76.4056 54.1 76.4056 53.176C76.4056 52.252 76.2256 51.526 75.8656 50.998C75.5176 50.47 75.0376 50.206 74.4256 50.206C73.7656 50.206 73.2496 50.47 72.8776 50.998C72.5056 51.514 72.3196 52.24 72.3196 53.176C72.3196 54.1 72.4996 54.826 72.8596 55.354C73.2316 55.882 73.7476 56.146 74.4076 56.146Z" fill="#EFF6FF"/>
</svg>
