<svg width="534" height="536" viewBox="0 0 534 536" fill="none" xmlns="http://www.w3.org/2000/svg">
<path d="M95.6244 133.394C125.499 69.7824 231.579 78.7597 272.517 123.486C313.455 168.212 326.755 196.888 363.681 180.196C400.606 163.504 447.697 167.955 450.404 221.027C453.111 274.099 409.808 336.854 341.168 355.419C272.527 373.983 272.517 439.692 181.631 426.435C132.079 419.212 130.945 365.595 137.943 321.254C144.941 276.913 60.9885 207.16 95.6244 133.394Z" fill="#407BFF"/>
<path opacity="0.9" d="M95.6244 133.394C125.499 69.7824 231.579 78.7597 272.517 123.486C313.455 168.212 326.755 196.888 363.681 180.196C400.606 163.504 447.697 167.955 450.404 221.027C453.111 274.099 409.808 336.854 341.168 355.419C272.527 373.983 272.517 439.692 181.631 426.435C132.079 419.212 130.945 365.595 137.943 321.254C144.941 276.913 60.9885 207.16 95.6244 133.394Z" fill="white"/>
<path d="M267.499 457.989C382.078 457.989 474.962 452.566 474.962 445.877C474.962 439.187 382.078 433.764 267.499 433.764C152.921 433.764 60.0371 439.187 60.0371 445.877C60.0371 452.566 152.921 457.989 267.499 457.989Z" fill="#F5F5F5"/>
<path d="M344.485 164.017H153.051C148.725 164.017 145.219 167.524 145.219 171.85V397.256C145.219 401.582 148.725 405.088 153.051 405.088H344.485C348.811 405.088 352.317 401.582 352.317 397.256V171.85C352.317 167.524 348.811 164.017 344.485 164.017Z" fill="#407BFF"/>
<path opacity="0.6" d="M344.485 164.017H153.051C148.725 164.017 145.219 167.524 145.219 171.85V397.256C145.219 401.582 148.725 405.088 153.051 405.088H344.485C348.811 405.088 352.317 401.582 352.317 397.256V171.85C352.317 167.524 348.811 164.017 344.485 164.017Z" fill="white"/>
<path d="M318.772 274.58H178.773V298.548H318.772V274.58Z" fill="white"/>
<g opacity="0.4">
<path d="M191.293 288.897V289.528H186.436V282.659H191.144V283.28H187.163V285.73H190.716V286.34H187.163V288.897H191.293Z" fill="#263238"/>
<path d="M192.268 286.564H194.846V287.164H192.268V286.564Z" fill="#263238"/>
<path d="M204.914 286.532V289.528H204.218V286.596C204.218 285.526 203.672 284.949 202.742 284.949C202.5 284.937 202.259 284.979 202.036 285.071C201.812 285.162 201.611 285.302 201.447 285.479C201.283 285.656 201.16 285.867 201.086 286.097C201.012 286.327 200.989 286.571 201.019 286.81V289.528H200.313V286.596C200.313 285.526 199.767 284.949 198.825 284.949C198.584 284.937 198.343 284.979 198.12 285.071C197.896 285.162 197.695 285.302 197.531 285.479C197.367 285.656 197.244 285.867 197.17 286.097C197.096 286.327 197.073 286.571 197.103 286.81V289.528H196.396V284.36H197.071V285.302C197.272 284.986 197.554 284.729 197.886 284.557C198.218 284.384 198.59 284.301 198.964 284.317C199.343 284.285 199.721 284.371 200.049 284.563C200.376 284.754 200.637 285.042 200.794 285.387C201.008 285.043 201.31 284.761 201.67 284.573C202.029 284.385 202.433 284.297 202.838 284.317C203.128 284.295 203.42 284.339 203.691 284.444C203.963 284.55 204.207 284.715 204.406 284.927C204.606 285.14 204.755 285.394 204.842 285.672C204.93 285.95 204.955 286.244 204.914 286.532Z" fill="#263238"/>
<path d="M210.714 286.318V289.528H210.04V288.715C209.849 289.005 209.583 289.237 209.27 289.388C208.957 289.538 208.61 289.602 208.264 289.571C207.098 289.571 206.381 288.961 206.381 288.073C206.381 287.185 206.894 286.607 208.371 286.607H210.008V286.297C210.008 285.409 209.516 284.927 208.553 284.927C207.925 284.92 207.314 285.136 206.83 285.537L206.52 285.024C207.124 284.537 207.885 284.286 208.66 284.317C208.933 284.284 209.21 284.313 209.471 284.401C209.732 284.489 209.969 284.634 210.166 284.826C210.363 285.018 210.515 285.252 210.61 285.51C210.705 285.768 210.74 286.044 210.714 286.318ZM210.008 287.977V287.132H208.392C207.397 287.132 207.066 287.517 207.066 288.052C207.066 288.587 207.547 289.025 208.371 289.025C208.72 289.049 209.067 288.959 209.362 288.77C209.657 288.582 209.883 288.304 210.008 287.977Z" fill="#263238"/>
<path d="M212.447 282.734C212.449 282.668 212.463 282.603 212.49 282.542C212.516 282.482 212.554 282.427 212.602 282.381C212.65 282.336 212.706 282.3 212.768 282.276C212.829 282.252 212.895 282.24 212.961 282.242C213.026 282.24 213.09 282.251 213.15 282.275C213.21 282.298 213.265 282.333 213.312 282.378C213.359 282.423 213.396 282.476 213.422 282.536C213.448 282.595 213.462 282.658 213.464 282.723C213.465 282.79 213.453 282.857 213.429 282.919C213.404 282.981 213.367 283.038 213.32 283.086C213.273 283.133 213.218 283.171 213.156 283.197C213.094 283.223 213.028 283.237 212.961 283.237C212.894 283.238 212.827 283.226 212.765 283.201C212.703 283.177 212.646 283.14 212.598 283.093C212.55 283.046 212.512 282.99 212.487 282.929C212.461 282.867 212.447 282.801 212.447 282.734ZM212.608 284.36H213.303V289.528H212.608V284.36Z" fill="#263238"/>
<path d="M215.24 282.242H215.936V289.528H215.24V282.242Z" fill="#263238"/>
</g>
<path d="M318.772 307.323H178.773V331.291H318.772V307.323Z" fill="white"/>
<g opacity="0.4">
<path d="M191.807 317.787C191.807 319.253 190.737 320.141 189.004 320.141H187.163V322.281H186.436V315.412H189.004C190.748 315.433 191.807 316.321 191.807 317.787ZM191.079 317.787C191.079 316.717 190.362 316.064 188.939 316.064H187.12V319.499H188.939C190.362 319.499 191.079 318.868 191.079 317.787Z" fill="#263238"/>
<path d="M197.082 319.103V322.313H196.407V321.5C196.216 321.789 195.95 322.022 195.637 322.172C195.325 322.323 194.977 322.386 194.631 322.356C193.465 322.356 192.748 321.746 192.748 320.847C192.748 319.948 193.262 319.36 194.738 319.36H196.375V319.039C196.375 318.161 195.872 317.68 194.909 317.68C194.284 317.672 193.677 317.888 193.197 318.29L192.876 317.765C193.486 317.29 194.244 317.044 195.016 317.07C195.293 317.034 195.575 317.062 195.839 317.151C196.104 317.24 196.345 317.388 196.544 317.584C196.743 317.779 196.895 318.018 196.988 318.281C197.081 318.545 197.113 318.826 197.082 319.103ZM196.386 320.751V319.905H194.738C193.743 319.905 193.422 320.301 193.422 320.836C193.422 321.371 193.893 321.799 194.728 321.799C195.08 321.825 195.431 321.738 195.73 321.549C196.029 321.36 196.259 321.08 196.386 320.751Z" fill="#263238"/>
<path d="M198.26 321.714L198.57 321.168C199.11 321.545 199.752 321.747 200.41 321.746C201.384 321.746 201.791 321.414 201.791 320.901C201.791 319.552 198.442 320.612 198.442 318.579C198.442 317.733 199.169 317.102 200.485 317.102C201.127 317.096 201.759 317.263 202.315 317.584L202.005 318.14C201.555 317.843 201.025 317.69 200.485 317.701C199.554 317.701 199.137 318.065 199.137 318.557C199.137 319.948 202.486 318.9 202.486 320.879C202.486 321.778 201.705 322.356 200.346 322.356C199.599 322.375 198.867 322.15 198.26 321.714Z" fill="#263238"/>
<path d="M203.053 321.714L203.374 321.168C203.907 321.549 204.548 321.751 205.203 321.746C206.188 321.746 206.584 321.414 206.584 320.901C206.584 319.552 203.245 320.612 203.245 318.579C203.245 317.733 203.973 317.102 205.278 317.102C205.921 317.094 206.553 317.26 207.108 317.584L206.808 318.14C206.354 317.844 205.821 317.691 205.278 317.701C204.347 317.701 203.941 318.065 203.941 318.557C203.941 319.948 207.29 318.9 207.29 320.879C207.29 321.778 206.498 322.356 205.15 322.356C204.4 322.374 203.664 322.148 203.053 321.714Z" fill="#263238"/>
<path d="M216.042 317.145L214.094 322.302H213.442L211.858 318.076L210.232 322.302H209.579L207.578 317.145H208.242L209.868 321.532L211.526 317.145H212.126L213.773 321.532L215.411 317.145H216.042Z" fill="#263238"/>
<path d="M216.427 319.724C216.427 319.203 216.582 318.694 216.871 318.261C217.16 317.829 217.571 317.491 218.052 317.292C218.533 317.093 219.062 317.041 219.573 317.142C220.084 317.244 220.553 317.494 220.921 317.863C221.289 318.231 221.54 318.7 221.641 319.21C221.743 319.721 221.691 320.25 221.491 320.731C221.292 321.212 220.955 321.623 220.522 321.912C220.089 322.202 219.58 322.356 219.059 322.356C218.711 322.368 218.363 322.308 218.038 322.18C217.713 322.052 217.419 321.858 217.172 321.612C216.925 321.365 216.731 321.07 216.603 320.745C216.475 320.42 216.415 320.073 216.427 319.724ZM220.975 319.724C220.958 319.346 220.831 318.982 220.609 318.677C220.387 318.371 220.08 318.138 219.726 318.006C219.372 317.873 218.987 317.848 218.619 317.932C218.251 318.017 217.916 318.208 217.656 318.481C217.395 318.755 217.221 319.099 217.155 319.471C217.088 319.842 217.133 320.225 217.282 320.572C217.432 320.919 217.68 321.214 217.996 321.421C218.312 321.628 218.682 321.737 219.059 321.735C219.321 321.74 219.58 321.691 219.821 321.59C220.062 321.49 220.28 321.34 220.46 321.151C220.64 320.962 220.779 320.737 220.867 320.492C220.956 320.246 220.993 319.984 220.975 319.724Z" fill="#263238"/>
<path d="M225.704 317.102V317.776H225.532C225.288 317.764 225.043 317.807 224.817 317.9C224.59 317.994 224.387 318.136 224.221 318.316C224.056 318.497 223.932 318.712 223.859 318.946C223.786 319.18 223.766 319.427 223.799 319.67V322.302H223.104V317.145H223.767V318.151C223.947 317.802 224.229 317.515 224.574 317.328C224.919 317.141 225.313 317.062 225.704 317.102Z" fill="#263238"/>
<path d="M231.622 315.08V322.356H230.959V321.339C230.751 321.678 230.457 321.955 230.108 322.143C229.758 322.331 229.365 322.423 228.968 322.409C228.301 322.367 227.674 322.071 227.216 321.583C226.759 321.096 226.504 320.452 226.504 319.782C226.504 319.113 226.759 318.469 227.216 317.982C227.674 317.494 228.301 317.198 228.968 317.156C229.36 317.147 229.747 317.241 230.09 317.429C230.434 317.617 230.722 317.891 230.926 318.226V315.08H231.622ZM230.937 319.777C230.92 319.4 230.793 319.036 230.571 318.73C230.349 318.425 230.042 318.191 229.688 318.059C229.335 317.927 228.95 317.901 228.582 317.986C228.214 318.07 227.879 318.261 227.618 318.535C227.358 318.808 227.184 319.152 227.117 319.524C227.051 319.896 227.095 320.279 227.245 320.626C227.394 320.972 227.642 321.268 227.958 321.474C228.274 321.681 228.644 321.79 229.022 321.789C229.288 321.795 229.552 321.744 229.797 321.64C230.042 321.536 230.263 321.382 230.444 321.187C230.625 320.991 230.762 320.76 230.847 320.508C230.932 320.256 230.963 319.989 230.937 319.724V319.777Z" fill="#263238"/>
</g>
<path opacity="0.2" d="M318.772 355.74H178.773V379.708H318.772V355.74Z" fill="black"/>
<g opacity="0.5">
<path d="M212.821 344.73H210.531L210.039 345.8H209.59L211.462 341.702H211.89L213.763 345.8H213.313L212.821 344.73ZM212.661 344.377L211.676 342.172L210.692 344.377H212.661Z" fill="black"/>
<path d="M214.361 341.477H214.779V345.821H214.361V341.477Z" fill="black"/>
<path d="M217.497 342.718V343.125H217.39C217.24 343.112 217.09 343.133 216.95 343.186C216.81 343.24 216.684 343.324 216.581 343.433C216.478 343.542 216.401 343.673 216.356 343.816C216.31 343.959 216.298 344.111 216.32 344.259V345.832H215.902V342.75H216.309V343.349C216.416 343.133 216.588 342.956 216.801 342.843C217.014 342.73 217.258 342.686 217.497 342.718Z" fill="black"/>
<path d="M220.9 344.409H218.279C218.287 344.559 218.325 344.705 218.39 344.841C218.455 344.976 218.547 345.097 218.659 345.196C218.772 345.296 218.903 345.372 219.045 345.421C219.187 345.469 219.338 345.489 219.488 345.479C219.666 345.485 219.843 345.453 220.007 345.384C220.171 345.316 220.319 345.213 220.44 345.083L220.665 345.35C220.444 345.582 220.159 345.744 219.846 345.815C219.533 345.886 219.206 345.862 218.907 345.748C218.607 345.634 218.348 345.433 218.162 345.172C217.976 344.911 217.871 344.601 217.861 344.28C217.851 344.077 217.883 343.874 217.954 343.683C218.026 343.492 218.135 343.318 218.277 343.172C218.418 343.025 218.588 342.91 218.776 342.831C218.964 342.753 219.166 342.715 219.37 342.718C219.574 342.713 219.776 342.751 219.964 342.828C220.152 342.906 220.322 343.022 220.463 343.169C220.604 343.316 220.713 343.491 220.783 343.682C220.852 343.873 220.881 344.077 220.868 344.28C220.868 344.28 220.9 344.366 220.9 344.409ZM218.321 344.098H220.461C220.461 343.814 220.349 343.542 220.148 343.342C219.947 343.141 219.675 343.028 219.391 343.028C219.108 343.028 218.835 343.141 218.635 343.342C218.434 343.542 218.321 343.814 218.321 344.098Z" fill="black"/>
<path d="M223.992 343.97V345.875H223.628V345.393C223.515 345.569 223.355 345.71 223.166 345.801C222.977 345.892 222.767 345.928 222.558 345.907C221.863 345.907 221.488 345.543 221.488 345.008C221.488 344.473 221.788 344.13 222.676 344.13H223.628V343.949C223.628 343.424 223.329 343.135 222.751 343.135C222.362 343.121 221.981 343.25 221.681 343.499L221.499 343.189C221.854 342.906 222.297 342.758 222.751 342.772C222.916 342.743 223.086 342.754 223.247 342.804C223.407 342.853 223.554 342.94 223.675 343.056C223.796 343.173 223.888 343.317 223.943 343.475C223.998 343.634 224.015 343.803 223.992 343.97ZM223.585 344.954V344.441H222.612C222.013 344.441 221.82 344.676 221.82 344.997C221.82 345.318 222.109 345.575 222.601 345.575C222.823 345.592 223.044 345.535 223.23 345.413C223.415 345.291 223.556 345.111 223.628 344.901L223.585 344.954Z" fill="black"/>
<path d="M227.908 341.477V345.821H227.512V345.211C227.39 345.415 227.216 345.583 227.007 345.696C226.797 345.809 226.562 345.863 226.324 345.853C225.931 345.821 225.564 345.641 225.297 345.351C225.029 345.061 224.881 344.68 224.881 344.286C224.881 343.891 225.029 343.511 225.297 343.22C225.564 342.93 225.931 342.751 226.324 342.718C226.556 342.712 226.785 342.764 226.991 342.871C227.197 342.978 227.373 343.135 227.501 343.328V341.477H227.908ZM227.501 344.28C227.491 344.056 227.415 343.84 227.283 343.659C227.151 343.478 226.968 343.34 226.759 343.261C226.549 343.183 226.32 343.168 226.102 343.218C225.883 343.268 225.684 343.381 225.53 343.543C225.375 343.705 225.271 343.909 225.231 344.129C225.191 344.35 225.217 344.577 225.305 344.783C225.393 344.989 225.539 345.165 225.726 345.289C225.913 345.412 226.132 345.478 226.356 345.479C226.516 345.488 226.675 345.464 226.824 345.406C226.973 345.349 227.109 345.261 227.221 345.148C227.333 345.035 227.42 344.899 227.476 344.749C227.532 344.599 227.555 344.439 227.544 344.28H227.501Z" fill="black"/>
<path d="M231.707 342.74L230.167 346.196C229.91 346.795 229.578 346.987 229.097 346.987C228.82 346.995 228.552 346.895 228.348 346.709L228.54 346.399C228.691 346.549 228.895 346.634 229.107 346.634C229.386 346.634 229.567 346.506 229.749 346.11L229.878 345.821L228.497 342.74H228.979L230.145 345.361L231.301 342.74H231.707Z" fill="black"/>
<path d="M236.157 343.97V345.875H235.761V345.393C235.648 345.569 235.488 345.71 235.299 345.801C235.11 345.892 234.899 345.928 234.691 345.907C233.996 345.907 233.621 345.543 233.621 345.008C233.621 344.473 233.921 344.13 234.809 344.13H235.782V343.949C235.782 343.424 235.494 343.135 234.916 343.135C234.527 343.121 234.146 343.25 233.846 343.499L233.653 343.189C234.012 342.906 234.459 342.758 234.916 342.772C235.081 342.743 235.251 342.754 235.412 342.804C235.572 342.853 235.719 342.94 235.84 343.056C235.961 343.173 236.052 343.317 236.108 343.475C236.163 343.634 236.18 343.803 236.157 343.97ZM235.74 344.954V344.441H234.777C234.177 344.441 233.985 344.676 233.985 344.997C233.985 345.318 234.274 345.575 234.766 345.575C234.979 345.583 235.19 345.522 235.366 345.401C235.541 345.279 235.673 345.104 235.74 344.901V344.954Z" fill="black"/>
<path d="M243.958 344.034V345.821H243.552V344.077C243.552 343.424 243.22 343.093 242.663 343.093C242.52 343.081 242.376 343.101 242.241 343.151C242.106 343.201 241.984 343.279 241.882 343.381C241.78 343.483 241.702 343.605 241.652 343.74C241.602 343.875 241.582 344.019 241.593 344.163V345.778H241.187V344.077C241.187 343.424 240.855 343.093 240.288 343.093C240.145 343.081 240.001 343.101 239.866 343.151C239.731 343.201 239.608 343.279 239.506 343.381C239.405 343.483 239.326 343.605 239.277 343.74C239.227 343.875 239.207 344.019 239.218 344.163V345.778H238.801V342.697H239.197V343.264C239.315 343.072 239.482 342.916 239.682 342.812C239.882 342.709 240.106 342.661 240.331 342.675C240.555 342.658 240.779 342.711 240.971 342.829C241.164 342.946 241.314 343.12 241.401 343.328C241.525 343.118 241.705 342.947 241.92 342.832C242.135 342.717 242.377 342.663 242.621 342.675C242.806 342.642 242.996 342.655 243.175 342.712C243.354 342.769 243.516 342.868 243.648 343.002C243.779 343.136 243.876 343.3 243.931 343.48C243.985 343.66 243.994 343.85 243.958 344.034Z" fill="black"/>
<path d="M247.746 344.409H245.167C245.189 344.711 245.33 344.993 245.558 345.194C245.786 345.394 246.084 345.496 246.387 345.479C246.564 345.485 246.739 345.453 246.902 345.385C247.065 345.317 247.21 345.213 247.329 345.083L247.564 345.35C247.414 345.514 247.23 345.644 247.025 345.731C246.82 345.818 246.599 345.859 246.377 345.853C246.164 345.867 245.952 345.836 245.753 345.762C245.553 345.688 245.372 345.574 245.219 345.426C245.067 345.277 244.948 345.099 244.869 344.901C244.79 344.704 244.753 344.493 244.761 344.28C244.761 343.883 244.919 343.502 245.2 343.221C245.481 342.94 245.862 342.782 246.259 342.782C246.656 342.782 247.037 342.94 247.318 343.221C247.599 343.502 247.757 343.883 247.757 344.28C247.757 344.28 247.746 344.366 247.746 344.409ZM245.167 344.098H247.361C247.361 343.807 247.245 343.528 247.04 343.323C246.834 343.117 246.555 343.002 246.264 343.002C245.973 343.002 245.694 343.117 245.489 343.323C245.283 343.528 245.167 343.807 245.167 344.098Z" fill="black"/>
<path d="M253.695 344.034V345.821H253.277V344.077C253.277 343.424 252.956 343.093 252.4 343.093C252.256 343.079 252.111 343.098 251.975 343.147C251.839 343.196 251.716 343.275 251.614 343.377C251.512 343.479 251.434 343.602 251.384 343.738C251.335 343.874 251.317 344.019 251.33 344.163V345.778H250.913V344.077C250.913 343.424 250.592 343.093 250.024 343.093C249.881 343.079 249.736 343.098 249.6 343.147C249.464 343.196 249.341 343.275 249.239 343.377C249.137 343.479 249.058 343.602 249.009 343.738C248.96 343.874 248.941 344.019 248.954 344.163V345.778H248.537V342.697H248.933V343.264C249.05 343.071 249.218 342.915 249.418 342.811C249.618 342.707 249.842 342.66 250.067 342.675C250.292 342.658 250.516 342.711 250.708 342.829C250.9 342.946 251.05 343.12 251.137 343.328C251.262 343.118 251.441 342.947 251.656 342.832C251.871 342.717 252.114 342.663 252.357 342.675C252.542 342.642 252.732 342.655 252.911 342.712C253.09 342.769 253.252 342.868 253.384 343.002C253.516 343.136 253.613 343.3 253.667 343.48C253.721 343.66 253.73 343.85 253.695 344.034Z" fill="black"/>
<path d="M257.954 344.28C257.965 344.486 257.933 344.691 257.86 344.884C257.787 345.077 257.676 345.252 257.532 345.4C257.389 345.548 257.216 345.664 257.025 345.742C256.835 345.82 256.63 345.858 256.424 345.853C256.187 345.863 255.951 345.809 255.742 345.696C255.533 345.583 255.358 345.415 255.237 345.211V345.821H254.83V341.477H255.247V343.328C255.375 343.134 255.55 342.976 255.756 342.87C255.963 342.763 256.192 342.711 256.424 342.718C256.63 342.712 256.834 342.748 257.025 342.825C257.215 342.902 257.388 343.017 257.532 343.164C257.675 343.311 257.787 343.486 257.86 343.678C257.933 343.87 257.965 344.075 257.954 344.28ZM257.537 344.28C257.527 344.056 257.451 343.84 257.319 343.659C257.187 343.478 257.005 343.34 256.795 343.261C256.585 343.183 256.356 343.168 256.138 343.218C255.919 343.268 255.72 343.381 255.566 343.543C255.411 343.705 255.307 343.909 255.267 344.129C255.227 344.35 255.253 344.577 255.341 344.783C255.429 344.989 255.575 345.165 255.762 345.289C255.949 345.412 256.168 345.478 256.392 345.479C256.548 345.482 256.703 345.453 256.847 345.393C256.991 345.333 257.121 345.244 257.229 345.131C257.336 345.019 257.419 344.885 257.472 344.738C257.526 344.592 257.548 344.436 257.537 344.28Z" fill="black"/>
<path d="M261.495 344.409H258.938C258.946 344.559 258.984 344.705 259.049 344.841C259.115 344.976 259.206 345.097 259.319 345.196C259.431 345.296 259.562 345.372 259.704 345.421C259.847 345.469 259.997 345.489 260.147 345.479C260.325 345.479 260.5 345.439 260.661 345.363C260.822 345.287 260.964 345.177 261.078 345.04L261.313 345.307C261.092 345.54 260.807 345.701 260.494 345.772C260.182 345.843 259.855 345.82 259.555 345.705C259.256 345.591 258.997 345.391 258.811 345.129C258.625 344.868 258.52 344.558 258.51 344.237C258.499 344.034 258.531 343.831 258.602 343.64C258.674 343.45 258.784 343.276 258.925 343.129C259.067 342.983 259.237 342.867 259.425 342.789C259.613 342.711 259.815 342.672 260.018 342.675C260.222 342.67 260.423 342.708 260.611 342.785C260.799 342.863 260.968 342.979 261.108 343.127C261.249 343.274 261.356 343.449 261.425 343.64C261.493 343.831 261.521 344.035 261.506 344.237L261.495 344.409ZM258.916 344.098H261.056C261.056 343.815 260.944 343.542 260.743 343.342C260.542 343.141 260.27 343.028 259.986 343.028C259.703 343.028 259.43 343.141 259.23 343.342C259.029 343.542 258.916 343.815 258.916 344.098Z" fill="black"/>
<path d="M263.904 342.718V343.125H263.808C263.658 343.112 263.508 343.133 263.368 343.186C263.228 343.24 263.101 343.324 262.999 343.433C262.896 343.542 262.819 343.673 262.774 343.816C262.728 343.959 262.716 344.11 262.738 344.259V345.832H262.32V342.75H262.716V343.349C262.825 343.134 262.997 342.958 263.21 342.845C263.423 342.732 263.665 342.688 263.904 342.718Z" fill="black"/>
<path d="M266.6 342.772C266.6 342.344 266.258 342.055 265.658 342.055C265.448 342.043 265.237 342.079 265.042 342.161C264.848 342.242 264.674 342.367 264.535 342.526L264.225 342.29C264.407 342.084 264.634 341.922 264.887 341.817C265.141 341.711 265.416 341.664 265.691 341.68C266.514 341.68 267.039 342.076 267.039 342.75C267.039 343.745 265.969 343.82 265.969 344.633H265.53C265.53 343.628 266.6 343.531 266.6 342.772ZM265.444 345.543C265.458 345.472 265.496 345.408 265.551 345.361C265.607 345.315 265.677 345.29 265.749 345.29C265.822 345.29 265.892 345.315 265.947 345.361C266.003 345.408 266.041 345.472 266.054 345.543C266.063 345.588 266.061 345.634 266.05 345.678C266.038 345.722 266.017 345.763 265.988 345.798C265.959 345.834 265.923 345.862 265.881 345.881C265.84 345.901 265.795 345.911 265.749 345.911C265.704 345.911 265.659 345.901 265.617 345.881C265.576 345.862 265.54 345.834 265.511 345.798C265.481 345.763 265.46 345.722 265.449 345.678C265.438 345.634 265.436 345.588 265.444 345.543Z" fill="black"/>
<path d="M269.5 341.723H270.452V345.04H272.507V345.81H269.5V341.723Z" fill="black"/>
<path d="M272.72 344.248C272.699 343.902 272.782 343.556 272.959 343.258C273.136 342.959 273.398 342.72 273.713 342.572C274.027 342.425 274.378 342.375 274.721 342.429C275.064 342.483 275.383 342.639 275.636 342.877C275.889 343.115 276.066 343.423 276.142 343.762C276.218 344.1 276.19 344.454 276.063 344.777C275.935 345.1 275.714 345.378 275.427 345.573C275.14 345.769 274.801 345.874 274.453 345.875C274.231 345.889 274.008 345.858 273.798 345.783C273.588 345.708 273.396 345.59 273.234 345.438C273.071 345.285 272.942 345.101 272.853 344.896C272.765 344.692 272.72 344.471 272.72 344.248ZM275.256 344.248C275.244 344.093 275.186 343.944 275.091 343.821C274.995 343.698 274.866 343.605 274.719 343.554C274.571 343.503 274.412 343.496 274.261 343.534C274.11 343.572 273.973 343.653 273.867 343.767C273.761 343.881 273.691 344.024 273.665 344.178C273.639 344.332 273.658 344.489 273.72 344.632C273.782 344.775 273.885 344.897 274.015 344.983C274.145 345.068 274.298 345.114 274.453 345.115C274.565 345.117 274.676 345.095 274.778 345.052C274.881 345.008 274.973 344.943 275.049 344.861C275.125 344.779 275.182 344.682 275.218 344.577C275.254 344.471 275.267 344.359 275.256 344.248Z" fill="black"/>
<path d="M280.049 342.665V345.297C280.078 345.533 280.052 345.773 279.973 345.998C279.894 346.223 279.763 346.426 279.592 346.592C279.421 346.758 279.214 346.882 278.987 346.955C278.76 347.027 278.519 347.045 278.283 347.009C277.733 347.03 277.19 346.876 276.732 346.57L277.095 345.917C277.408 346.141 277.781 346.264 278.165 346.271C278.807 346.271 279.096 345.982 279.096 345.415V345.275C278.968 345.409 278.813 345.513 278.642 345.581C278.47 345.649 278.286 345.68 278.101 345.671C277.89 345.689 277.678 345.663 277.478 345.594C277.277 345.526 277.094 345.416 276.938 345.273C276.782 345.129 276.657 344.955 276.572 344.762C276.487 344.568 276.443 344.358 276.443 344.147C276.443 343.935 276.487 343.725 276.572 343.532C276.657 343.338 276.782 343.164 276.938 343.02C277.094 342.877 277.277 342.768 277.478 342.699C277.678 342.63 277.89 342.604 278.101 342.622C278.303 342.606 278.505 342.638 278.691 342.716C278.877 342.795 279.042 342.916 279.171 343.071V342.665H280.049ZM279.15 344.152C279.153 344.045 279.134 343.938 279.093 343.839C279.052 343.74 278.991 343.65 278.913 343.576C278.835 343.503 278.743 343.446 278.642 343.411C278.54 343.375 278.433 343.362 278.326 343.371C278.216 343.358 278.105 343.368 278 343.401C277.895 343.435 277.798 343.49 277.716 343.563C277.633 343.636 277.567 343.726 277.522 343.827C277.477 343.927 277.454 344.036 277.454 344.147C277.454 344.257 277.477 344.366 277.522 344.466C277.567 344.567 277.633 344.657 277.716 344.73C277.798 344.804 277.895 344.859 278 344.892C278.105 344.925 278.216 344.935 278.326 344.922C278.432 344.931 278.539 344.918 278.639 344.883C278.739 344.848 278.832 344.793 278.909 344.72C278.987 344.648 279.048 344.56 279.09 344.462C279.131 344.364 279.152 344.258 279.15 344.152Z" fill="black"/>
<path d="M282.479 341.723C282.48 341.651 282.496 341.581 282.525 341.515C282.555 341.45 282.598 341.391 282.651 341.343C282.704 341.295 282.766 341.258 282.834 341.235C282.902 341.212 282.974 341.204 283.046 341.209C283.116 341.202 283.186 341.209 283.254 341.23C283.321 341.251 283.383 341.286 283.436 341.332C283.489 341.378 283.532 341.435 283.563 341.499C283.593 341.562 283.61 341.631 283.613 341.702C283.613 341.852 283.553 341.996 283.447 342.103C283.34 342.209 283.196 342.269 283.046 342.269C282.895 342.269 282.751 342.209 282.645 342.103C282.538 341.996 282.479 341.852 282.479 341.702V341.723ZM282.586 342.665H283.495V345.875H282.586V342.665Z" fill="black"/>
<path d="M287.551 343.97V345.778H286.641V344.12C286.641 343.606 286.406 343.371 285.999 343.371C285.593 343.371 285.24 343.638 285.24 344.216V345.778H284.33V342.568H285.207V342.943C285.345 342.8 285.512 342.69 285.697 342.618C285.882 342.546 286.08 342.514 286.277 342.525C286.462 342.516 286.647 342.549 286.817 342.621C286.988 342.692 287.14 342.802 287.262 342.941C287.385 343.08 287.474 343.244 287.524 343.422C287.574 343.601 287.583 343.788 287.551 343.97Z" fill="black"/>
</g>
<path d="M318.772 354.274H178.773V378.242H318.772V354.274Z" fill="#407BFF"/>
<path d="M230.69 369.982L228.978 367.51H228.464H226.431V370.003H225.254V361.796H228.464C230.604 361.796 231.877 362.866 231.877 364.664C231.904 365.233 231.743 365.795 231.418 366.263C231.093 366.732 230.622 367.08 230.08 367.253L232.027 370.003L230.69 369.982ZM230.69 364.632C230.69 363.455 229.908 362.791 228.4 362.791H226.41V366.483H228.4C229.876 366.493 230.657 365.809 230.657 364.642L230.69 364.632Z" fill="white"/>
<path d="M239.165 367.253H234.125C234.204 367.782 234.479 368.263 234.895 368.6C235.311 368.936 235.838 369.105 236.372 369.072C236.708 369.084 237.042 369.024 237.353 368.894C237.663 368.765 237.941 368.57 238.169 368.323L238.79 369.051C238.332 369.516 237.75 369.838 237.113 369.981C236.476 370.123 235.812 370.078 235.2 369.852C234.588 369.626 234.054 369.229 233.662 368.707C233.27 368.185 233.037 367.562 232.991 366.911C232.968 366.491 233.033 366.07 233.181 365.677C233.329 365.283 233.557 364.924 233.851 364.622C234.144 364.321 234.497 364.083 234.886 363.925C235.276 363.766 235.694 363.69 236.115 363.701C236.533 363.689 236.95 363.766 237.337 363.925C237.724 364.084 238.073 364.322 238.363 364.625C238.652 364.927 238.875 365.287 239.016 365.681C239.158 366.074 239.216 366.493 239.186 366.911C239.186 367.007 239.175 367.146 239.165 367.253ZM234.125 366.44H238.105C238.054 365.948 237.822 365.492 237.455 365.161C237.087 364.829 236.61 364.646 236.115 364.646C235.62 364.646 235.143 364.829 234.775 365.161C234.408 365.492 234.176 365.948 234.125 366.44Z" fill="white"/>
<path d="M246.697 363.776V369.126C246.697 371.319 245.573 372.336 243.487 372.336C242.422 372.381 241.374 372.056 240.523 371.415L241.058 370.549C241.742 371.08 242.588 371.363 243.455 371.351C244.92 371.351 245.595 370.677 245.595 369.265V368.772C245.318 369.09 244.973 369.342 244.586 369.508C244.199 369.675 243.779 369.753 243.358 369.735C242.561 369.735 241.796 369.419 241.232 368.855C240.668 368.291 240.352 367.526 240.352 366.729C240.352 365.931 240.668 365.167 241.232 364.603C241.796 364.039 242.561 363.722 243.358 363.722C243.799 363.709 244.236 363.798 244.635 363.984C245.035 364.17 245.385 364.447 245.659 364.792V363.829L246.697 363.776ZM245.627 366.718C245.65 366.291 245.545 365.866 245.325 365.499C245.104 365.132 244.779 364.839 244.39 364.659C244.002 364.479 243.569 364.419 243.146 364.488C242.723 364.557 242.331 364.751 242.02 365.045C241.709 365.339 241.493 365.72 241.401 366.138C241.308 366.556 241.343 366.992 241.501 367.39C241.659 367.788 241.932 368.129 242.286 368.37C242.64 368.611 243.059 368.74 243.487 368.74C243.76 368.757 244.035 368.716 244.292 368.621C244.55 368.527 244.785 368.38 244.982 368.19C245.18 368 245.337 367.771 245.442 367.518C245.548 367.265 245.599 366.992 245.595 366.718H245.627Z" fill="white"/>
<path d="M248.645 361.85C248.646 361.751 248.667 361.654 248.706 361.564C248.745 361.473 248.801 361.392 248.871 361.323C248.942 361.255 249.025 361.201 249.117 361.164C249.208 361.128 249.306 361.11 249.404 361.111C249.508 361.099 249.613 361.108 249.713 361.139C249.812 361.171 249.904 361.222 249.983 361.292C250.061 361.361 250.123 361.446 250.166 361.541C250.209 361.637 250.231 361.74 250.231 361.844C250.231 361.949 250.209 362.052 250.166 362.147C250.123 362.242 250.061 362.328 249.983 362.397C249.904 362.466 249.812 362.518 249.713 362.549C249.613 362.58 249.508 362.59 249.404 362.577C249.306 362.58 249.209 362.563 249.118 362.528C249.026 362.493 248.943 362.44 248.872 362.372C248.801 362.305 248.745 362.224 248.706 362.134C248.667 362.044 248.646 361.947 248.645 361.85ZM248.848 363.776H249.971V369.982H248.848V363.776Z" fill="white"/>
<path d="M251.33 369.329L251.801 368.441C252.438 368.855 253.181 369.078 253.941 369.083C255.011 369.083 255.417 368.762 255.417 368.238C255.417 366.847 251.491 368.056 251.491 365.573C251.491 364.503 252.486 363.712 254.08 363.712C254.869 363.699 255.648 363.895 256.338 364.279L255.856 365.167C255.322 364.83 254.7 364.659 254.069 364.674C253.085 364.674 252.603 365.038 252.603 365.53C252.603 366.996 256.541 365.798 256.541 368.216C256.541 369.286 255.471 370.057 253.855 370.057C252.96 370.07 252.081 369.817 251.33 369.329Z" fill="white"/>
<path d="M261.486 369.65C261.096 369.947 260.617 370.102 260.127 370.089C259.863 370.119 259.595 370.089 259.344 370.003C259.093 369.916 258.865 369.774 258.676 369.587C258.487 369.4 258.342 369.173 258.252 368.923C258.163 368.673 258.131 368.405 258.158 368.141V364.728H257.088V363.808H258.158V362.449H259.228V363.808H261.079V364.728H259.292V368.098C259.267 368.236 259.274 368.378 259.312 368.512C259.351 368.647 259.42 368.771 259.514 368.874C259.608 368.978 259.725 369.058 259.856 369.109C259.986 369.16 260.126 369.181 260.266 369.168C260.582 369.171 260.891 369.07 261.143 368.879L261.486 369.65Z" fill="white"/>
<path d="M268.225 367.253H263.218C263.297 367.784 263.573 368.266 263.992 368.603C264.41 368.94 264.939 369.108 265.475 369.072C265.81 369.085 266.143 369.024 266.451 368.895C266.76 368.766 267.037 368.57 267.262 368.323L267.883 369.051C267.426 369.517 266.845 369.841 266.208 369.983C265.571 370.126 264.907 370.082 264.295 369.856C263.683 369.63 263.15 369.231 262.759 368.709C262.369 368.186 262.138 367.562 262.094 366.911C262.072 366.491 262.137 366.07 262.285 365.677C262.433 365.283 262.661 364.924 262.954 364.622C263.248 364.321 263.6 364.083 263.99 363.925C264.38 363.766 264.798 363.69 265.219 363.701C265.636 363.691 266.052 363.768 266.438 363.928C266.825 364.088 267.173 364.326 267.462 364.628C267.751 364.93 267.974 365.289 268.116 365.682C268.259 366.075 268.318 366.494 268.289 366.911C268.278 367.027 268.257 367.141 268.225 367.253ZM263.218 366.44H267.209C267.147 365.954 266.91 365.508 266.543 365.184C266.176 364.86 265.703 364.682 265.213 364.682C264.724 364.682 264.251 364.86 263.883 365.184C263.516 365.508 263.279 365.954 263.218 366.44Z" fill="white"/>
<path d="M273.159 363.711V364.781H272.902C272.624 364.762 272.345 364.805 272.086 364.909C271.826 365.012 271.594 365.173 271.406 365.378C271.218 365.584 271.078 365.83 270.998 366.097C270.918 366.364 270.9 366.646 270.944 366.921V370.014H269.82V363.808H270.89V364.878C271.116 364.486 271.451 364.168 271.853 363.961C272.255 363.754 272.709 363.667 273.159 363.711Z" fill="white"/>
<g opacity="0.6">
<path d="M224.26 190.543L224.741 189.537C225.572 190.233 226.622 190.612 227.705 190.607C229.257 190.607 229.92 190.008 229.92 189.226C229.92 187.086 224.484 188.413 224.484 185.086C224.484 183.695 225.554 182.518 227.919 182.518C228.938 182.501 229.94 182.776 230.808 183.309L230.38 184.379C229.645 183.909 228.792 183.657 227.919 183.652C226.389 183.652 225.779 184.294 225.779 185.075C225.779 187.215 231.225 185.888 231.225 189.194C231.225 190.564 230.155 191.741 227.748 191.741C226.48 191.768 225.244 191.343 224.26 190.543Z" fill="#263238"/>
<path d="M232.66 182.657C232.662 182.549 232.684 182.443 232.727 182.344C232.77 182.245 232.832 182.156 232.91 182.081C232.987 182.006 233.079 181.948 233.179 181.909C233.28 181.87 233.387 181.851 233.495 181.854C233.601 181.85 233.707 181.867 233.807 181.904C233.906 181.941 233.998 181.997 234.075 182.07C234.153 182.143 234.216 182.23 234.259 182.327C234.303 182.424 234.327 182.529 234.329 182.635C234.329 182.857 234.241 183.069 234.085 183.225C233.928 183.382 233.716 183.47 233.495 183.47C233.273 183.47 233.061 183.382 232.905 183.225C232.748 183.069 232.66 182.857 232.66 182.635V182.657ZM232.874 184.797H234.115V191.602H232.874V184.797Z" fill="#263238"/>
<path d="M242.963 184.764V190.639C242.963 193.046 241.743 194.138 239.443 194.138C238.288 194.174 237.156 193.816 236.233 193.121L236.821 192.169C237.567 192.758 238.493 193.072 239.443 193.057C241.048 193.057 241.775 192.308 241.775 190.767V190.232C241.473 190.582 241.095 190.859 240.671 191.045C240.247 191.23 239.787 191.318 239.325 191.302C238.877 191.328 238.429 191.262 238.007 191.108C237.586 190.954 237.201 190.716 236.874 190.408C236.548 190.1 236.289 189.728 236.111 189.316C235.933 188.904 235.842 188.46 235.842 188.012C235.842 187.563 235.933 187.119 236.111 186.707C236.289 186.296 236.548 185.924 236.874 185.616C237.201 185.308 237.586 185.07 238.007 184.916C238.429 184.762 238.877 184.696 239.325 184.722C239.798 184.697 240.27 184.781 240.706 184.966C241.142 185.151 241.529 185.434 241.84 185.792V184.722L242.963 184.764ZM241.765 187.974C241.788 187.507 241.671 187.043 241.428 186.642C241.186 186.242 240.828 185.923 240.403 185.727C239.977 185.532 239.503 185.468 239.041 185.545C238.579 185.622 238.15 185.835 237.811 186.158C237.471 186.48 237.236 186.897 237.136 187.355C237.035 187.812 237.074 188.289 237.248 188.724C237.421 189.159 237.721 189.532 238.108 189.795C238.496 190.059 238.953 190.199 239.421 190.2C239.728 190.227 240.036 190.189 240.327 190.09C240.618 189.991 240.884 189.832 241.11 189.623C241.336 189.415 241.515 189.161 241.637 188.879C241.759 188.597 241.821 188.292 241.818 187.985L241.765 187.974Z" fill="#263238"/>
<path d="M251.779 187.654V191.57H250.538V187.75C250.538 186.412 249.875 185.76 248.708 185.76C248.412 185.74 248.115 185.786 247.839 185.895C247.562 186.003 247.313 186.171 247.109 186.386C246.904 186.602 246.75 186.86 246.657 187.142C246.563 187.424 246.533 187.723 246.568 188.017V191.527H245.338V184.722H246.526V185.792C246.818 185.429 247.193 185.143 247.62 184.956C248.046 184.77 248.511 184.69 248.976 184.722C249.362 184.696 249.749 184.755 250.11 184.895C250.47 185.035 250.796 185.253 251.063 185.532C251.33 185.812 251.533 186.147 251.657 186.513C251.781 186.88 251.822 187.269 251.779 187.654Z" fill="#263238"/>
<path d="M263.86 184.765V191.57H262.694V190.5C262.422 190.85 262.071 191.13 261.668 191.316C261.266 191.502 260.825 191.589 260.383 191.57C259.985 191.611 259.583 191.562 259.206 191.427C258.83 191.292 258.488 191.074 258.207 190.79C257.926 190.506 257.712 190.162 257.581 189.784C257.45 189.406 257.406 189.003 257.451 188.606V184.69H258.681V188.467C258.681 189.794 259.355 190.468 260.522 190.468C260.818 190.489 261.116 190.444 261.394 190.337C261.671 190.229 261.921 190.061 262.126 189.845C262.331 189.629 262.485 189.371 262.577 189.088C262.67 188.805 262.699 188.505 262.662 188.21V184.69L263.86 184.765Z" fill="#263238"/>
<path d="M273.255 188.167C273.28 188.627 273.208 189.086 273.044 189.516C272.881 189.946 272.629 190.337 272.306 190.665C271.983 190.992 271.595 191.248 271.167 191.417C270.739 191.586 270.28 191.663 269.821 191.645C269.369 191.662 268.919 191.575 268.507 191.389C268.095 191.204 267.731 190.925 267.445 190.575V194.084H266.215V184.797H267.392V185.867C267.674 185.494 268.043 185.196 268.466 184.996C268.889 184.797 269.354 184.703 269.821 184.722C270.278 184.702 270.734 184.778 271.161 184.944C271.587 185.11 271.974 185.364 272.297 185.688C272.62 186.012 272.873 186.4 273.037 186.827C273.202 187.253 273.277 187.71 273.255 188.167ZM272.014 188.167C271.993 187.72 271.842 187.289 271.578 186.927C271.315 186.565 270.951 186.288 270.532 186.131C270.112 185.973 269.656 185.942 269.22 186.041C268.783 186.141 268.385 186.366 268.075 186.689C267.765 187.012 267.556 187.419 267.475 187.859C267.394 188.299 267.444 188.754 267.618 189.166C267.792 189.579 268.084 189.931 268.456 190.179C268.829 190.428 269.266 190.561 269.714 190.564C270.026 190.571 270.336 190.512 270.624 190.393C270.913 190.273 271.173 190.095 271.39 189.87C271.606 189.645 271.773 189.377 271.881 189.084C271.988 188.791 272.034 188.479 272.014 188.167Z" fill="#263238"/>
</g>
<path d="M318.772 241.828H178.773V265.796H318.772V241.828Z" fill="white"/>
<g opacity="0.4">
<path d="M186.436 249.906H187.163V256.144H191.004V256.776H186.436V249.906Z" fill="#263238"/>
<path d="M195.979 253.576V256.786H195.316V255.984C195.121 256.27 194.854 256.5 194.542 256.65C194.231 256.8 193.885 256.866 193.539 256.84C192.373 256.84 191.656 256.23 191.656 255.331C191.656 254.432 192.159 253.876 193.646 253.876H195.284V253.566C195.284 252.677 194.781 252.196 193.818 252.196C193.192 252.188 192.585 252.404 192.106 252.806L191.785 252.282C192.396 251.808 193.152 251.562 193.925 251.586C194.197 251.553 194.473 251.581 194.733 251.669C194.993 251.756 195.23 251.901 195.426 252.091C195.623 252.282 195.775 252.514 195.871 252.771C195.966 253.028 196.003 253.303 195.979 253.576ZM195.284 255.224V254.379H193.668C192.662 254.379 192.341 254.775 192.341 255.31C192.341 255.845 192.823 256.273 193.646 256.273C193.995 256.294 194.342 256.204 194.636 256.016C194.93 255.827 195.157 255.55 195.284 255.224Z" fill="#263238"/>
<path d="M197.156 256.23L197.467 255.684C198.006 256.061 198.649 256.263 199.307 256.262C200.291 256.262 200.687 255.93 200.687 255.417C200.687 254.069 197.349 255.128 197.349 253.095C197.349 252.25 198.066 251.618 199.382 251.618C200.024 251.61 200.657 251.776 201.212 252.1L200.901 252.656C200.451 252.359 199.921 252.206 199.382 252.217C198.451 252.217 198.044 252.581 198.044 253.073C198.044 254.464 201.383 253.416 201.383 255.395C201.383 256.294 200.602 256.872 199.243 256.872C198.496 256.888 197.764 256.663 197.156 256.23Z" fill="#263238"/>
<path d="M205.439 256.465C205.135 256.707 204.757 256.835 204.369 256.829C204.166 256.851 203.96 256.827 203.767 256.759C203.574 256.691 203.399 256.581 203.254 256.436C203.109 256.291 202.999 256.116 202.931 255.923C202.863 255.73 202.839 255.524 202.861 255.321V252.207H201.93V251.618H202.861V250.484H203.556V251.618H205.118V252.207H203.556V255.288C203.538 255.412 203.548 255.537 203.585 255.656C203.622 255.775 203.686 255.884 203.772 255.975C203.857 256.065 203.962 256.135 204.079 256.18C204.195 256.224 204.32 256.241 204.444 256.23C204.725 256.238 204.999 256.143 205.215 255.963L205.439 256.465Z" fill="#263238"/>
<path d="M215.069 249.906V256.776H214.47L210.062 251.201V256.776H209.334V249.906H209.933L214.352 255.481V249.906H215.069Z" fill="#263238"/>
<path d="M221.104 253.576V256.786H220.419V255.984C220.226 256.272 219.96 256.503 219.647 256.653C219.335 256.804 218.988 256.868 218.643 256.84C217.477 256.84 216.76 256.23 216.76 255.331C216.76 254.432 217.273 253.876 218.761 253.876H220.419V253.566C220.419 252.677 219.916 252.196 218.953 252.196C218.328 252.188 217.72 252.404 217.241 252.806L216.92 252.282C217.53 251.806 218.287 251.56 219.06 251.586C219.332 251.555 219.606 251.584 219.865 251.673C220.123 251.761 220.359 251.905 220.555 252.096C220.75 252.286 220.901 252.518 220.996 252.774C221.091 253.03 221.128 253.304 221.104 253.576ZM220.408 255.224V254.379H218.782C217.787 254.379 217.466 254.775 217.466 255.31C217.466 255.845 217.947 256.273 218.771 256.273C219.122 256.296 219.471 256.207 219.767 256.019C220.064 255.83 220.292 255.552 220.419 255.224H220.408Z" fill="#263238"/>
<path d="M231.515 253.78V256.776H230.82V253.855C230.82 252.785 230.263 252.207 229.332 252.207C229.091 252.196 228.85 252.237 228.627 252.329C228.403 252.42 228.202 252.56 228.038 252.737C227.874 252.914 227.751 253.125 227.677 253.355C227.603 253.585 227.58 253.829 227.61 254.069V256.776H226.914V253.855C226.914 252.785 226.358 252.207 225.416 252.207C225.175 252.196 224.934 252.237 224.71 252.329C224.487 252.42 224.286 252.56 224.122 252.737C223.958 252.914 223.835 253.125 223.761 253.355C223.687 253.585 223.664 253.829 223.694 254.069V256.776H222.998V251.618H223.629V252.56C223.831 252.244 224.112 251.987 224.445 251.815C224.777 251.642 225.149 251.559 225.523 251.575C225.903 251.544 226.282 251.63 226.611 251.821C226.941 252.013 227.203 252.3 227.364 252.645C227.575 252.301 227.875 252.019 228.233 251.831C228.591 251.643 228.993 251.554 229.397 251.575C229.689 251.547 229.985 251.585 230.261 251.687C230.537 251.789 230.786 251.952 230.99 252.164C231.194 252.376 231.347 252.632 231.438 252.912C231.529 253.191 231.555 253.488 231.515 253.78Z" fill="#263238"/>
<path d="M237.924 254.411H233.644C233.659 254.663 233.724 254.909 233.834 255.136C233.944 255.362 234.098 255.565 234.287 255.732C234.476 255.899 234.696 256.027 234.935 256.109C235.173 256.191 235.425 256.224 235.677 256.209C235.974 256.218 236.27 256.163 236.543 256.046C236.817 255.93 237.062 255.755 237.261 255.534L237.646 255.984C237.275 256.371 236.798 256.64 236.275 256.758C235.752 256.876 235.206 256.838 234.705 256.647C234.204 256.456 233.77 256.122 233.458 255.687C233.145 255.251 232.968 254.733 232.949 254.197C232.931 253.856 232.984 253.515 233.103 253.196C233.222 252.876 233.406 252.584 233.643 252.339C233.88 252.093 234.164 251.898 234.479 251.767C234.794 251.636 235.133 251.571 235.474 251.575C235.815 251.569 236.153 251.633 236.468 251.764C236.782 251.895 237.066 252.09 237.302 252.336C237.537 252.583 237.719 252.875 237.835 253.196C237.951 253.516 238 253.857 237.978 254.197C237.935 254.261 237.924 254.336 237.924 254.411ZM233.644 253.897H237.304C237.304 253.412 237.111 252.947 236.768 252.604C236.424 252.26 235.959 252.068 235.474 252.068C234.989 252.068 234.523 252.26 234.18 252.604C233.837 252.947 233.644 253.412 233.644 253.897Z" fill="#263238"/>
</g>
<path d="M318.772 209.086H178.773V233.054H318.772V209.086Z" fill="white"/>
<g opacity="0.4">
<path d="M187.163 217.795V220.492H190.716V221.123H187.163V224.033H186.436V217.164H191.144V217.795H187.163Z" fill="#263238"/>
<path d="M192.246 217.239C192.244 217.137 192.273 217.036 192.328 216.95C192.384 216.864 192.464 216.796 192.558 216.756C192.653 216.716 192.757 216.705 192.857 216.724C192.958 216.744 193.05 216.793 193.123 216.865C193.195 216.938 193.244 217.03 193.264 217.131C193.283 217.231 193.272 217.336 193.232 217.43C193.192 217.524 193.124 217.604 193.038 217.66C192.952 217.715 192.852 217.744 192.749 217.742C192.616 217.742 192.488 217.689 192.394 217.595C192.299 217.5 192.246 217.372 192.246 217.239ZM192.396 218.876H193.092V224.034H192.396V218.876Z" fill="#263238"/>
<path d="M197.639 218.833V219.508H197.468C197.222 219.496 196.977 219.538 196.749 219.632C196.522 219.726 196.318 219.869 196.152 220.051C195.987 220.233 195.863 220.45 195.791 220.685C195.719 220.92 195.7 221.169 195.735 221.412V224.044H195.039V218.887H195.702V219.85C195.888 219.507 196.171 219.227 196.516 219.046C196.861 218.865 197.252 218.791 197.639 218.833Z" fill="#263238"/>
<path d="M198.217 223.445L198.527 222.889C199.062 223.276 199.707 223.483 200.367 223.477C201.352 223.477 201.748 223.135 201.748 222.632C201.748 221.284 198.409 222.343 198.409 220.299C198.409 219.465 199.126 218.833 200.442 218.833C201.085 218.819 201.719 218.986 202.272 219.315L201.962 219.871C201.512 219.574 200.982 219.421 200.442 219.433C199.511 219.433 199.105 219.796 199.105 220.289C199.105 221.68 202.443 220.631 202.443 222.61C202.443 223.499 201.662 224.076 200.303 224.076C199.558 224.096 198.826 223.874 198.217 223.445Z" fill="#263238"/>
<path d="M206.51 223.723C206.202 223.957 205.826 224.081 205.44 224.076C205.237 224.1 205.031 224.078 204.838 224.011C204.645 223.944 204.469 223.835 204.324 223.691C204.179 223.547 204.069 223.372 204 223.18C203.932 222.987 203.909 222.782 203.931 222.578V219.465H203V218.876H203.931V217.71H204.626V218.844H206.189V219.433H204.626V222.504C204.608 222.627 204.618 222.753 204.656 222.873C204.693 222.992 204.757 223.101 204.842 223.193C204.927 223.284 205.032 223.355 205.148 223.401C205.265 223.446 205.39 223.465 205.515 223.456C205.795 223.459 206.067 223.365 206.285 223.188L206.51 223.723Z" fill="#263238"/>
<path d="M216.139 217.164V224.033H215.54L211.132 218.459V224.033H210.404V217.164H211.003L215.423 222.739V217.164H216.139Z" fill="#263238"/>
<path d="M222.164 220.834V224.044H221.489V223.242C221.298 223.528 221.033 223.757 220.722 223.905C220.412 224.054 220.067 224.117 219.724 224.087C218.547 224.087 217.83 223.488 217.83 222.589C217.83 221.69 218.344 221.134 219.831 221.134H221.489V220.813C221.489 219.935 220.987 219.454 220.024 219.454C219.398 219.446 218.791 219.662 218.312 220.064L217.991 219.54C218.601 219.065 219.358 218.819 220.131 218.844C220.401 218.813 220.676 218.842 220.934 218.93C221.192 219.018 221.427 219.163 221.622 219.354C221.817 219.545 221.967 219.777 222.06 220.033C222.154 220.289 222.189 220.563 222.164 220.834ZM221.468 222.482V221.637H219.842C218.847 221.637 218.526 222.033 218.526 222.557C218.526 223.081 219.007 223.531 219.831 223.531C220.183 223.555 220.534 223.467 220.832 223.278C221.13 223.089 221.361 222.811 221.489 222.482H221.468Z" fill="#263238"/>
<path d="M232.574 221.038V224.034H231.878V221.112C231.878 220.042 231.322 219.465 230.391 219.465C230.15 219.453 229.909 219.495 229.685 219.587C229.462 219.678 229.261 219.818 229.097 219.995C228.933 220.172 228.809 220.383 228.735 220.613C228.661 220.843 228.638 221.087 228.668 221.326V224.034H227.973V221.112C227.973 220.042 227.416 219.465 226.475 219.465C226.234 219.453 225.993 219.495 225.769 219.587C225.546 219.678 225.345 219.818 225.181 219.995C225.017 220.172 224.893 220.383 224.819 220.613C224.745 220.843 224.722 221.087 224.752 221.326V224.034H224.057V218.876H224.699V219.85C224.901 219.534 225.182 219.277 225.514 219.105C225.846 218.932 226.218 218.849 226.593 218.865C226.972 218.834 227.352 218.92 227.681 219.112C228.01 219.303 228.272 219.59 228.433 219.935C228.642 219.589 228.942 219.306 229.301 219.118C229.659 218.929 230.062 218.842 230.466 218.865C230.755 218.84 231.046 218.878 231.318 218.979C231.59 219.08 231.836 219.241 232.038 219.449C232.24 219.657 232.393 219.908 232.486 220.183C232.578 220.457 232.608 220.75 232.574 221.038Z" fill="#263238"/>
<path d="M238.983 221.669H234.703C234.718 221.92 234.782 222.167 234.893 222.393C235.003 222.62 235.157 222.823 235.346 222.99C235.535 223.157 235.755 223.285 235.993 223.367C236.232 223.448 236.484 223.482 236.736 223.466C237.034 223.476 237.33 223.42 237.604 223.301C237.878 223.183 238.122 223.005 238.319 222.782L238.705 223.242C238.334 223.629 237.857 223.898 237.334 224.016C236.811 224.134 236.265 224.095 235.764 223.905C235.263 223.714 234.829 223.38 234.516 222.944C234.204 222.509 234.027 221.991 234.007 221.455C233.99 221.114 234.042 220.773 234.162 220.454C234.281 220.134 234.465 219.842 234.701 219.596C234.938 219.351 235.223 219.156 235.538 219.025C235.853 218.894 236.191 218.828 236.532 218.833C236.873 218.827 237.212 218.891 237.526 219.022C237.841 219.153 238.125 219.348 238.36 219.594C238.596 219.84 238.777 220.133 238.894 220.453C239.01 220.774 239.059 221.115 239.036 221.455C238.993 221.508 238.983 221.583 238.983 221.669ZM234.703 221.144H238.362C238.362 220.659 238.169 220.194 237.826 219.851C237.483 219.508 237.018 219.315 236.532 219.315C236.047 219.315 235.582 219.508 235.239 219.851C234.896 220.194 234.703 220.659 234.703 221.144Z" fill="#263238"/>
</g>
<path d="M126.097 412.75H125.08C125.08 411.241 126.332 375.888 132.484 369.95C138.808 363.797 146.245 369.864 146.309 369.95L145.667 370.72C145.389 370.495 138.851 365.188 133.18 370.72C127.327 376.295 126.107 412.386 126.097 412.75Z" fill="#407BFF"/>
<path d="M125.585 419.844L124.579 419.747C124.579 419.319 128.559 376.819 113.162 359.143L113.922 358.479C129.608 376.487 125.628 419.416 125.585 419.844Z" fill="#407BFF"/>
<path d="M126.076 415.307C125.947 413.295 122.983 366.087 134.818 355.173L135.502 355.922C124.021 366.472 127.049 414.772 127.081 415.232L126.076 415.307Z" fill="#407BFF"/>
<path d="M124.577 415.275C124.577 414.954 124.214 383.175 115.793 378.392C115.077 377.92 114.258 377.627 113.405 377.537C112.552 377.448 111.69 377.565 110.892 377.878C105.959 379.922 103.338 389.338 103.306 389.434L102.332 389.167C102.439 388.76 105.114 379.184 110.507 376.947C111.446 376.57 112.463 376.424 113.471 376.523C114.478 376.622 115.447 376.962 116.296 377.514C125.209 382.618 125.583 413.894 125.594 415.264L124.577 415.275Z" fill="#407BFF"/>
<path d="M128.045 415.296C127.981 414.226 126.686 390.215 133.502 381.302C135.321 378.938 137.332 377.814 139.515 377.975C144.362 378.306 148.075 384.876 148.278 385.154L147.401 385.657C147.401 385.593 143.742 379.237 139.44 378.98C137.632 378.841 135.899 379.836 134.304 381.923C127.713 390.483 129.04 414.997 129.051 415.243L128.045 415.296Z" fill="#407BFF"/>
<path d="M126.686 418.624L125.68 418.549C125.68 417.971 129.96 360.641 122.898 351.075L123.712 350.476C131.009 360.341 126.868 416.248 126.686 418.624Z" fill="#407BFF"/>
<path d="M108.55 382.651C108.55 382.651 112.915 384.266 111.62 388.065C110.326 391.863 96.5013 398.123 96.5013 398.123C96.5013 398.123 90.7126 392.826 96.0305 384.213C101.348 375.599 108.432 379.933 108.55 382.651Z" fill="#407BFF"/>
<path opacity="0.2" d="M108.55 382.651C108.55 382.651 112.915 384.266 111.62 388.065C110.326 391.863 96.5013 398.123 96.5013 398.123C96.5013 398.123 90.7126 392.826 96.0305 384.213C101.348 375.599 108.432 379.933 108.55 382.651Z" fill="black"/>
<path d="M127.542 375.417C127.542 375.417 122.888 375.225 122.62 379.226C122.353 383.228 132.678 394.335 132.678 394.335C132.678 394.335 140.061 391.66 138.478 381.655C136.894 371.651 128.698 372.946 127.542 375.417Z" fill="#407BFF"/>
<path opacity="0.2" d="M127.542 375.417C127.542 375.417 122.888 375.225 122.62 379.226C122.353 383.228 132.678 394.335 132.678 394.335C132.678 394.335 140.061 391.66 138.478 381.655C136.894 371.651 128.698 372.946 127.542 375.417Z" fill="black"/>
<path d="M131.48 356.222C131.48 356.222 128.377 355.89 128.623 354.007C128.869 352.123 140.682 347.255 147.648 355.077C147.648 355.077 143.186 362.738 136.745 362.845C130.303 362.952 131.48 356.222 131.48 356.222Z" fill="#407BFF"/>
<path opacity="0.2" d="M131.48 356.222C131.48 356.222 128.377 355.89 128.623 354.007C128.869 352.123 140.682 347.255 147.648 355.077C147.648 355.077 143.186 362.738 136.745 362.845C130.303 362.952 131.48 356.222 131.48 356.222Z" fill="black"/>
<path d="M125.702 351.631C125.702 351.631 128.506 352.99 129.298 351.257C130.089 349.523 122.631 339.155 112.563 342.14C112.563 342.14 112.295 351 117.709 354.499C123.124 357.998 125.702 351.631 125.702 351.631Z" fill="#407BFF"/>
<path opacity="0.2" d="M125.702 351.631C125.702 351.631 128.506 352.99 129.298 351.257C130.089 349.523 122.631 339.155 112.563 342.14C112.563 342.14 112.295 351 117.709 354.499C123.124 357.998 125.702 351.631 125.702 351.631Z" fill="black"/>
<path d="M140.382 381.131C140.382 381.131 138.242 379.398 140.554 378.552C142.865 377.707 154.196 377.953 154.314 389.177C154.314 389.177 141.11 391.371 139.484 387.091C137.857 382.811 140.382 381.131 140.382 381.131Z" fill="#407BFF"/>
<path opacity="0.2" d="M140.382 381.131C140.382 381.131 138.242 379.398 140.554 378.552C142.865 377.707 154.196 377.953 154.314 389.177C154.314 389.177 141.11 391.371 139.484 387.091C137.857 382.811 140.382 381.131 140.382 381.131Z" fill="black"/>
<path d="M113.418 355.943C113.418 355.943 115.558 354.21 113.247 353.375C110.935 352.541 99.604 352.765 99.4863 363.99C99.4863 363.99 112.69 366.194 114.317 361.914C115.943 357.634 113.418 355.943 113.418 355.943Z" fill="#407BFF"/>
<path opacity="0.2" d="M113.418 355.943C113.418 355.943 115.558 354.21 113.247 353.375C110.935 352.541 99.604 352.765 99.4863 363.99C99.4863 363.99 112.69 366.194 114.317 361.914C115.943 357.634 113.418 355.943 113.418 355.943Z" fill="black"/>
<path d="M120.438 364.985C120.438 364.985 120.631 362.845 118.929 363.712C117.228 364.578 111.332 370.913 117.453 376.958C117.453 376.958 125.702 370.848 124.215 367.671C122.728 364.493 120.438 364.985 120.438 364.985Z" fill="#407BFF"/>
<path opacity="0.2" d="M120.438 364.985C120.438 364.985 120.631 362.845 118.929 363.712C117.228 364.578 111.332 370.913 117.453 376.958C117.453 376.958 125.702 370.848 124.215 367.671C122.728 364.493 120.438 364.985 120.438 364.985Z" fill="black"/>
<path d="M142.309 367.981C142.309 367.981 141.025 366.301 142.908 366.098C144.791 365.894 153.18 368.131 151.222 376.519C151.222 376.519 140.992 375.749 140.522 372.239C140.051 368.73 142.309 367.981 142.309 367.981Z" fill="#407BFF"/>
<path opacity="0.2" d="M142.309 367.981C142.309 367.981 141.025 366.301 142.908 366.098C144.791 365.894 153.18 368.131 151.222 376.519C151.222 376.519 140.992 375.749 140.522 372.239C140.051 368.73 142.309 367.981 142.309 367.981Z" fill="black"/>
<path d="M109.31 446.39H142.384L146.781 414.226H104.912L109.31 446.39Z" fill="#263238"/>
<path opacity="0.2" d="M109.31 446.39H142.384L146.781 414.226H104.912L109.31 446.39Z" fill="white"/>
<path d="M150.932 411.615V414.675C150.932 415.657 150.542 416.599 149.848 417.293C149.154 417.988 148.212 418.378 147.23 418.378H104.056C103.074 418.378 102.132 417.988 101.438 417.293C100.744 416.599 100.354 415.657 100.354 414.675V411.615H150.932Z" fill="#263238"/>
<path d="M426.522 106.762H395.781C393.272 106.762 390.867 107.758 389.093 109.532C387.319 111.306 386.322 113.712 386.322 116.22V142.97C386.321 144.214 386.564 145.445 387.039 146.594C387.514 147.742 388.21 148.786 389.089 149.666C389.967 150.545 391.011 151.243 392.159 151.719C393.307 152.195 394.538 152.44 395.781 152.44H404.758L402.618 160.882L411.178 152.44H426.576C429.087 152.44 431.496 151.442 433.272 149.666C435.047 147.891 436.045 145.482 436.045 142.97V116.22C436.045 114.973 435.798 113.738 435.319 112.586C434.84 111.434 434.137 110.388 433.252 109.509C432.367 108.63 431.317 107.935 430.162 107.463C429.007 106.992 427.77 106.753 426.522 106.762Z" fill="#407BFF"/>
<path opacity="0.7" d="M426.522 106.762H395.781C393.272 106.762 390.867 107.758 389.093 109.532C387.319 111.306 386.322 113.712 386.322 116.22V142.97C386.321 144.214 386.564 145.445 387.039 146.594C387.514 147.742 388.21 148.786 389.089 149.666C389.967 150.545 391.011 151.243 392.159 151.719C393.307 152.195 394.538 152.44 395.781 152.44H404.758L402.618 160.882L411.178 152.44H426.576C429.087 152.44 431.496 151.442 433.272 149.666C435.047 147.891 436.045 145.482 436.045 142.97V116.22C436.045 114.973 435.798 113.738 435.319 112.586C434.84 111.434 434.137 110.388 433.252 109.509C432.367 108.63 431.317 107.935 430.162 107.463C429.007 106.992 427.77 106.753 426.522 106.762Z" fill="white"/>
<path d="M411.157 141.419C417.746 141.419 423.088 136.078 423.088 129.489C423.088 122.9 417.746 117.558 411.157 117.558C404.568 117.558 399.227 122.9 399.227 129.489C399.227 136.078 404.568 141.419 411.157 141.419Z" fill="white"/>
<path d="M411.157 114.23C408.139 114.23 405.189 115.125 402.68 116.802C400.17 118.478 398.215 120.861 397.06 123.649C395.905 126.437 395.603 129.505 396.192 132.465C396.78 135.425 398.234 138.144 400.367 140.278C402.501 142.412 405.22 143.865 408.18 144.453C411.14 145.042 414.208 144.74 416.996 143.585C419.784 142.43 422.167 140.475 423.843 137.965C425.52 135.456 426.415 132.506 426.415 129.488C426.416 127.484 426.023 125.5 425.256 123.648C424.49 121.796 423.366 120.113 421.949 118.696C420.532 117.279 418.849 116.155 416.997 115.389C415.146 114.623 413.161 114.229 411.157 114.23ZM419.813 124.93L410.622 135.759C410.491 135.915 410.327 136.04 410.142 136.126C409.957 136.211 409.755 136.254 409.552 136.251C409.348 136.252 409.147 136.209 408.962 136.124C408.777 136.039 408.613 135.914 408.482 135.759L402.5 128.707C402.374 128.568 402.277 128.404 402.215 128.227C402.153 128.049 402.128 127.861 402.14 127.673C402.153 127.485 402.203 127.302 402.288 127.134C402.373 126.966 402.49 126.817 402.634 126.695C402.778 126.574 402.945 126.483 403.124 126.427C403.304 126.371 403.493 126.352 403.681 126.371C403.868 126.39 404.049 126.447 404.214 126.538C404.379 126.628 404.524 126.751 404.64 126.899L409.552 132.688L417.673 123.122C417.917 122.853 418.256 122.689 418.618 122.665C418.981 122.641 419.339 122.758 419.616 122.993C419.894 123.227 420.069 123.56 420.106 123.922C420.143 124.283 420.038 124.645 419.813 124.93Z" fill="#407BFF"/>
<path d="M421.194 271.809C421.194 271.809 402.565 269.455 374.339 277.159C374.339 277.159 369.802 226.719 370.337 219.786C370.872 212.852 413.918 214.885 413.918 214.885C413.918 214.885 414.988 235.076 417.791 247.253C420.595 259.429 422.649 269.466 421.194 271.809Z" fill="#407BFF"/>
<path opacity="0.2" d="M421.194 271.809C421.194 271.809 402.565 269.455 374.339 277.159C374.339 277.159 369.802 226.719 370.337 219.786C370.872 212.852 413.918 214.885 413.918 214.885C413.918 214.885 414.988 235.076 417.791 247.253C420.595 259.429 422.649 269.466 421.194 271.809Z" fill="black"/>
<path d="M360.729 438.793L368.326 440.944L370.134 429.121L371.107 422.797L363.511 420.646L362.216 429.121L360.729 438.793Z" fill="#E4897B"/>
<path d="M404.406 439.414L412.239 440.452L412.314 429.121L412.367 422.08L404.524 421.053L404.47 429.121L404.406 439.414Z" fill="#E4897B"/>
<path opacity="0.2" d="M404.524 421.053L404.471 429.121H412.314L412.367 422.08L404.524 421.053Z" fill="black"/>
<path opacity="0.2" d="M362.215 429.121H370.133L371.107 422.797L363.51 420.646L362.215 429.121Z" fill="black"/>
<path d="M327.002 223.927L319.459 221.701L320.839 230.315C320.839 230.315 327.687 231.888 328.329 228.324L327.002 223.927Z" fill="#E4897B"/>
<path d="M311.926 223.702L315.628 230.7L320.839 230.315L319.459 221.701L311.926 223.702Z" fill="#E4897B"/>
<path d="M337.413 226.131L325.022 223.36L323.898 229.373L335.144 232.112L337.413 226.131Z" fill="#E4897B"/>
<path d="M374.895 220.695L374.167 221.562C372.605 223.392 368.817 227.811 364.869 231.62C361.659 234.723 358.449 237.43 356.309 237.976C350.242 239.538 328.189 233.043 328.189 233.043L330.469 224.098C330.469 224.098 351.013 226.826 352.607 226.826C353.816 226.826 366.314 208.722 369.342 207.235L374.895 220.695Z" fill="#407BFF"/>
<path opacity="0.2" d="M374.167 221.562C372.605 223.392 368.817 227.811 364.869 231.62C365.661 225.35 367.961 219.593 370.99 215.955C371.272 215.604 371.595 215.288 371.953 215.014L374.167 221.562Z" fill="black"/>
<path d="M360.825 437.606L369.449 437.381C369.605 437.376 369.757 437.424 369.882 437.518C370.006 437.611 370.095 437.744 370.134 437.895L371.953 444.839C371.997 445.005 372.002 445.179 371.969 445.348C371.936 445.516 371.866 445.675 371.763 445.813C371.66 445.951 371.528 446.064 371.375 446.143C371.223 446.223 371.055 446.267 370.883 446.273C367.769 446.273 363.265 446.273 359.359 446.348C354.78 446.476 351.869 446.251 346.519 446.348C343.309 446.433 342.239 443.202 343.609 442.87C349.74 441.351 353.752 441.65 358.974 438.226C359.525 437.859 360.164 437.645 360.825 437.606Z" fill="#263238"/>
<path d="M360.075 438.718C358.813 438.997 356.566 439.371 355.667 438.633C355.536 438.524 355.433 438.386 355.366 438.23C355.299 438.074 355.27 437.904 355.282 437.734C355.281 437.632 355.308 437.532 355.359 437.444C355.409 437.355 355.483 437.282 355.571 437.231C356.523 436.664 359.744 438.194 360.118 438.365C360.151 438.383 360.178 438.409 360.197 438.441C360.216 438.473 360.226 438.51 360.225 438.547C360.223 438.589 360.208 438.628 360.18 438.659C360.153 438.69 360.116 438.711 360.075 438.718ZM355.795 437.531H355.731C355.696 437.551 355.666 437.581 355.645 437.617C355.625 437.652 355.614 437.693 355.614 437.734C355.605 437.845 355.622 437.956 355.665 438.058C355.708 438.161 355.775 438.251 355.86 438.323C356.363 438.74 357.668 438.783 359.401 438.44C358.149 437.916 356.405 437.306 355.817 437.531H355.795Z" fill="#407BFF"/>
<path d="M360.076 438.718H359.947C358.974 438.312 357.026 436.664 357.133 435.776C357.133 435.562 357.304 435.294 357.818 435.23C358.007 435.206 358.198 435.218 358.382 435.268C358.565 435.318 358.737 435.403 358.888 435.519C359.958 436.322 360.204 438.429 360.225 438.515C360.229 438.548 360.223 438.58 360.21 438.61C360.197 438.64 360.177 438.666 360.151 438.686L360.076 438.718ZM357.679 435.647C357.518 435.701 357.508 435.787 357.508 435.819C357.443 436.354 358.77 437.659 359.765 438.215C359.651 437.317 359.253 436.477 358.631 435.819C358.526 435.73 358.402 435.665 358.269 435.628C358.136 435.591 357.997 435.583 357.861 435.605C357.798 435.61 357.737 435.625 357.679 435.647Z" fill="#407BFF"/>
<path d="M404.717 437.606L413.341 437.381C413.498 437.376 413.652 437.423 413.778 437.517C413.904 437.61 413.995 437.743 414.036 437.895L415.845 444.839C415.89 445.005 415.897 445.18 415.865 445.349C415.833 445.519 415.763 445.679 415.66 445.817C415.557 445.955 415.423 446.068 415.27 446.147C415.117 446.226 414.947 446.269 414.775 446.273C411.661 446.273 407.156 446.273 403.24 446.348C398.671 446.476 395.75 446.251 390.4 446.348C387.19 446.433 386.12 443.202 387.49 442.87C393.621 441.351 397.623 441.65 402.844 438.226C403.401 437.855 404.048 437.641 404.717 437.606Z" fill="#263238"/>
<path d="M403.978 438.718C402.715 438.997 400.458 439.371 399.569 438.633C399.438 438.524 399.335 438.386 399.268 438.23C399.201 438.074 399.172 437.904 399.184 437.734C399.184 437.632 399.21 437.532 399.261 437.444C399.312 437.355 399.385 437.282 399.473 437.231C400.415 436.664 403.646 438.194 404.01 438.365C404.046 438.379 404.075 438.405 404.095 438.438C404.114 438.471 404.122 438.509 404.117 438.547C404.114 438.587 404.099 438.624 404.074 438.655C404.049 438.685 404.016 438.708 403.978 438.718ZM399.698 437.531H399.634C399.598 437.551 399.569 437.581 399.551 437.617C399.532 437.653 399.523 437.693 399.527 437.734C399.516 437.845 399.533 437.957 399.576 438.059C399.619 438.162 399.686 438.252 399.773 438.323C400.276 438.74 401.57 438.783 403.314 438.44C402.041 437.916 400.297 437.306 399.709 437.531H399.698Z" fill="#407BFF"/>
<path d="M403.979 438.718H403.84C402.877 438.312 400.919 436.664 401.036 435.776C401.036 435.562 401.197 435.294 401.71 435.23C401.899 435.204 402.091 435.217 402.275 435.266C402.459 435.316 402.63 435.402 402.78 435.519C403.529 436.353 403.997 437.401 404.118 438.515C404.123 438.548 404.119 438.581 404.106 438.612C404.093 438.642 404.071 438.668 404.043 438.686L403.979 438.718ZM401.571 435.648C401.422 435.701 401.411 435.787 401.411 435.819C401.336 436.354 402.673 437.659 403.669 438.216C403.546 437.319 403.15 436.482 402.534 435.819C402.428 435.731 402.305 435.666 402.172 435.629C402.039 435.592 401.9 435.584 401.764 435.605L401.571 435.648Z" fill="#407BFF"/>
<path d="M420.562 267.208C424.714 285.195 417.588 426.702 417.588 426.702H403.827L397.942 308.778L376.275 426.702L361.562 425.632C371.192 334.276 379.678 279.738 379.678 279.738V272.847L420.562 267.208Z" fill="#263238"/>
<path opacity="0.4" d="M361.562 425.632L376.275 426.702L393.331 333.869L397.942 308.778L403.827 426.702H417.588C417.588 426.702 424.714 285.195 420.562 267.208L379.656 272.847V279.738C379.656 279.738 371.182 334.276 361.562 425.632Z" fill="white"/>
<path d="M413.148 200.59C412.727 209.19 412.945 217.809 413.801 226.377C414.379 232.369 415.171 238.029 416.016 243.133C417.996 255.106 420.243 264.084 420.563 267.219L379.657 272.858C364.742 231.128 370.359 206.882 370.359 206.882C373.418 205.619 376.552 204.547 379.743 203.672C380.417 203.49 381.102 203.318 381.808 203.158C387.553 202.027 393.359 201.227 399.196 200.761C400.266 200.665 401.432 200.59 402.523 200.536C408.109 200.258 413.148 200.59 413.148 200.59Z" fill="#263238"/>
<path d="M391.256 181.812C391.556 187.536 392.166 198.279 396.927 201.007C396.927 201.007 393.963 206.646 387.554 207.224C382.707 207.652 383.028 202.869 383.028 202.869C385.831 200.783 385.168 197.241 383.028 193.239L391.256 181.812Z" fill="#E4897B"/>
<path opacity="0.2" d="M387.895 186.477L383.059 193.239C383.568 194.164 383.997 195.13 384.343 196.128C386.59 195.229 389.168 191.848 388.794 189.398C388.677 188.377 388.372 187.387 387.895 186.477Z" fill="black"/>
<path d="M370.391 170.288C369.46 173.262 369.974 179.361 374.115 177.382C378.256 175.402 371.996 165.184 370.391 170.288Z" fill="#263238"/>
<path d="M391.79 174.311C392.25 181.94 392.86 186.38 389.532 190.703C384.471 197.198 374.67 194.78 371.931 187.418C369.47 180.784 369.138 169.421 376.211 165.569C377.779 164.716 379.537 164.275 381.322 164.286C383.107 164.298 384.859 164.762 386.416 165.636C387.972 166.509 389.282 167.763 390.221 169.28C391.161 170.797 391.701 172.528 391.79 174.311Z" fill="#E4897B"/>
<path d="M386.441 170.159V161.599C386.441 161.599 395.515 160.925 395.108 165.569C400.137 168.062 397.762 175.884 391.01 179.714C387.308 176.75 387.736 169.624 387.736 169.624C387.34 169.827 386.891 169.999 386.441 170.159Z" fill="#263238"/>
<path d="M395.482 180.26C395.307 181.193 394.947 182.082 394.423 182.874C393.899 183.666 393.222 184.345 392.432 184.872C390.292 186.273 388.441 184.551 388.366 182.143C388.302 180.003 389.318 176.622 391.779 176.194C392.318 176.11 392.868 176.161 393.382 176.342C393.896 176.523 394.357 176.829 394.724 177.231C395.091 177.634 395.352 178.122 395.484 178.65C395.616 179.179 395.615 179.732 395.482 180.26Z" fill="#E4897B"/>
<path d="M380.523 177.713C380.598 178.334 380.331 178.869 379.924 178.912C379.518 178.955 379.132 178.495 379.058 177.842C378.983 177.189 379.25 176.686 379.646 176.643C380.042 176.601 380.449 177.05 380.523 177.713Z" fill="#263238"/>
<path d="M373.525 178.494C373.6 179.115 373.333 179.65 372.926 179.693C372.52 179.736 372.134 179.276 372.059 178.623C371.985 177.97 372.252 177.467 372.659 177.424C373.065 177.382 373.429 177.874 373.525 178.494Z" fill="#263238"/>
<path d="M375.783 178.548C375.242 180.461 374.439 182.29 373.396 183.983C373.858 184.221 374.364 184.358 374.883 184.385C375.401 184.413 375.919 184.331 376.403 184.144L375.783 178.548Z" fill="#DE5753"/>
<path d="M380.01 186.134C379.746 186.202 379.478 186.252 379.207 186.284C379.159 186.284 379.113 186.265 379.079 186.231C379.045 186.197 379.025 186.15 379.025 186.102C379.025 186.054 379.045 186.008 379.079 185.973C379.113 185.939 379.159 185.92 379.207 185.92C379.976 185.85 380.717 185.601 381.371 185.192C382.025 184.783 382.574 184.226 382.974 183.566C382.983 183.545 382.996 183.525 383.013 183.509C383.03 183.493 383.051 183.48 383.073 183.472C383.095 183.464 383.118 183.461 383.142 183.462C383.165 183.464 383.188 183.47 383.209 183.481C383.231 183.491 383.251 183.505 383.267 183.524C383.283 183.542 383.296 183.563 383.304 183.586C383.312 183.609 383.315 183.633 383.313 183.657C383.312 183.681 383.306 183.705 383.295 183.727C382.945 184.334 382.472 184.863 381.906 185.277C381.341 185.692 380.695 185.984 380.01 186.134Z" fill="#263238"/>
<path d="M382.407 175.22C382.342 175.235 382.275 175.233 382.211 175.215C382.147 175.196 382.09 175.161 382.043 175.113C381.733 174.774 381.349 174.511 380.92 174.346C380.491 174.18 380.029 174.117 379.572 174.161C379.524 174.172 379.475 174.173 379.428 174.164C379.38 174.155 379.335 174.137 379.295 174.11C379.255 174.083 379.221 174.047 379.195 174.007C379.169 173.966 379.151 173.92 379.144 173.872C379.134 173.825 379.134 173.777 379.144 173.73C379.153 173.682 379.172 173.638 379.199 173.598C379.226 173.558 379.26 173.524 379.3 173.498C379.34 173.471 379.385 173.453 379.433 173.444C380.01 173.375 380.596 173.445 381.141 173.648C381.686 173.851 382.175 174.181 382.568 174.61C382.603 174.643 382.63 174.683 382.65 174.727C382.669 174.772 382.678 174.819 382.678 174.867C382.678 174.915 382.669 174.963 382.65 175.007C382.63 175.051 382.603 175.091 382.568 175.124C382.522 175.168 382.467 175.2 382.407 175.22Z" fill="#263238"/>
<path d="M370.22 176.429C370.151 176.456 370.075 176.456 370.006 176.429C369.915 176.398 369.841 176.332 369.799 176.246C369.757 176.159 369.75 176.06 369.781 175.969C369.958 175.419 370.265 174.919 370.677 174.513C371.089 174.106 371.593 173.806 372.146 173.637C372.239 173.613 372.339 173.627 372.422 173.676C372.505 173.725 372.566 173.805 372.59 173.899C372.614 173.993 372.6 174.092 372.551 174.175C372.501 174.259 372.421 174.319 372.328 174.343C371.89 174.478 371.492 174.718 371.17 175.043C370.847 175.367 370.609 175.766 370.476 176.205C370.456 176.261 370.422 176.311 370.377 176.35C370.332 176.389 370.278 176.417 370.22 176.429Z" fill="#263238"/>
<path d="M390.464 173.326C390.464 173.326 385.114 171.368 382.675 168.265C382.675 168.265 377.817 169.539 376.822 171.475C376.368 171.086 376.074 170.543 375.997 169.95C375.92 169.358 376.065 168.757 376.404 168.265C376.404 168.265 372.766 169.036 372.049 171.475C371.458 171.194 370.973 170.73 370.665 170.152C370.357 169.575 370.242 168.913 370.337 168.265C370.337 168.265 368.722 168.875 368.197 171.475C368.197 171.475 364.185 163.108 377.442 160.711C376.439 160.371 375.388 160.194 374.329 160.187C374.329 160.187 383.584 156.452 390.914 159.866C398.243 163.279 396.97 169.892 390.464 173.326Z" fill="#263238"/>
<path d="M423.719 274.42L410.879 276.132C410.879 276.132 405.583 239.121 403.25 227.169V201.66L409.959 199.895L415.159 201.66C416.585 206.792 417.683 212.01 418.444 217.282C419.075 221.284 419.642 225.564 420.145 229.897C420.841 235.804 421.419 241.817 421.911 247.445C422.681 256.53 423.195 264.565 423.473 269.477C423.633 272.558 423.719 274.42 423.719 274.42Z" fill="#407BFF"/>
<path d="M403.262 227.147C403.262 227.147 404.332 209.139 409.971 199.852C409.971 199.852 409.831 197.198 408.708 196.77C407.584 196.342 403.262 198.91 403.262 198.91C403.262 198.91 400.576 197.07 399.987 197.926C399.399 198.782 397.965 204.474 403.262 227.147Z" fill="#407BFF"/>
<path opacity="0.7" d="M403.262 227.147C403.262 227.147 404.332 209.139 409.971 199.852C409.971 199.852 409.831 197.198 408.708 196.77C407.584 196.342 403.262 198.91 403.262 198.91C403.262 198.91 400.576 197.07 399.987 197.926C399.399 198.782 397.965 204.474 403.262 227.147Z" fill="white"/>
<path d="M374.071 279.353L375.537 280.423C375.537 280.423 373.397 268.492 374.275 238.318C374.275 236.863 374.371 235.461 374.424 234.124C375.494 208.594 379.475 203.95 379.774 203.672L376.072 204.934L369.363 207.245C367.341 229.02 374.071 279.353 374.071 279.353Z" fill="#407BFF"/>
<path d="M374.649 229.726C374.649 229.726 370.947 212.221 372.049 206.186C373.151 200.151 377.099 202.837 377.099 202.837C377.099 202.837 380.726 199.905 381.807 203.137C381.807 203.137 376.821 206.646 374.649 229.726Z" fill="#407BFF"/>
<path opacity="0.7" d="M374.649 229.726C374.649 229.726 370.947 212.221 372.049 206.186C373.151 200.151 377.099 202.837 377.099 202.837C377.099 202.837 380.726 199.905 381.807 203.137C381.807 203.137 376.821 206.646 374.649 229.726Z" fill="white"/>
<path opacity="0.2" d="M420.124 229.855C414.646 226.784 413.918 218.769 413.918 218.769C414.25 218.641 416.283 217.945 418.423 217.239C419.054 221.241 419.621 225.521 420.124 229.855Z" fill="black"/>
<path opacity="0.2" d="M393.332 333.869L397.944 308.778L397.056 295.499C397.056 295.499 390.732 318.525 393.332 333.869Z" fill="black"/>
<path opacity="0.2" d="M423.452 269.434C420.006 269.198 417.032 268.974 417.032 268.974L416.379 254.967C417.453 254.295 418.742 254.058 419.985 254.304C420.831 252.066 421.473 249.756 421.9 247.402C422.649 256.487 423.173 264.533 423.452 269.434Z" fill="black"/>
<path d="M424.629 247.392L417.92 258.167L423.227 261.216L429.529 251.511L424.629 247.392Z" fill="#E4897B"/>
<path d="M414.871 201.489C419.386 201.981 438.582 228.324 439.427 236.264C440.273 244.203 428.149 257.91 428.149 257.91L420.06 253.148C420.06 253.148 428.278 240.512 428.706 237.098C429.134 233.685 413.672 219.893 413.672 219.893C412.503 216.715 411.86 213.369 411.768 209.985C411.554 204.185 414.871 201.489 414.871 201.489Z" fill="#407BFF"/>
<path d="M416.369 254.978C416.369 254.978 423.27 256.455 426.052 260.799C426.052 260.799 423.163 269.84 421.098 270.825C419.033 271.809 413.919 271.809 413.919 271.809C413.919 271.809 413.587 261.751 416.369 254.978Z" fill="#407BFF"/>
</svg>
