<svg width="25" height="25" viewBox="0 0 25 25" fill="none" xmlns="http://www.w3.org/2000/svg">
<path d="M19.1844 17.9945C19.6499 17.9945 20.0439 18.3885 20.0439 18.8898C20.0439 19.3554 19.6499 19.7135 19.1844 19.7135H4.82368C4.35812 19.7135 4 19.3554 4 18.854C4 18.3885 4.35812 17.9945 4.82368 17.9945H19.1844ZM19.1844 6.5346C19.6499 6.5346 20.0439 7.00016 20.0439 7.42991C20.0439 7.89547 19.6499 8.25359 19.1844 8.25359H4.82368C4.35812 8.25359 4 7.82384 4 7.3941C4 6.92854 4.35812 6.5346 4.82368 6.5346H19.1844ZM19.1844 12.2646C19.6499 12.2646 20.0439 12.6585 20.0439 13.1241C20.0439 13.6254 19.6499 13.9835 19.1844 13.9835H4.82368C4.35812 13.9835 4 13.6254 4 13.1241C4 12.6585 4.35812 12.2646 4.82368 12.2646H19.1844Z" fill="#A3A3A3"/>
</svg>
