<svg width="25" height="26" viewBox="0 0 25 26" fill="none" xmlns="http://www.w3.org/2000/svg">
<path d="M19.7216 17.456C19.9364 17.6708 20.0439 17.9573 20.0439 18.208C20.0081 18.8168 19.5783 19.354 18.8621 19.354H5.14599C4.46556 19.354 4 18.8168 4 18.208C4 17.9573 4.07162 17.6708 4.2865 17.456C4.96693 16.7039 6.29198 15.5937 6.29198 11.9051C6.29198 9.14753 8.22584 6.92717 10.8759 6.35417V5.60212C10.8759 4.99331 11.3773 4.45612 12.0219 4.45612C12.6307 4.45612 13.1679 4.99331 13.1679 5.60212V6.35417C15.7822 6.92717 17.7161 9.14753 17.7161 11.9051C17.7161 15.5937 19.0411 16.7039 19.7216 17.456ZM6.39942 17.635H17.6086C16.8566 16.6323 16.0329 14.9849 16.0329 11.9409V11.9051C16.0329 9.72052 14.2065 7.8941 12.0219 7.8941C9.80158 7.8941 8.01097 9.72052 8.01097 11.9051V11.9409C8.01097 14.9849 7.15148 16.6323 6.39942 17.635ZM11.9861 22.792C10.7327 22.792 9.72996 21.7892 9.72996 20.5H14.3139C14.3139 21.7892 13.2754 22.792 11.9861 22.792Z" fill="#A3A3A3"/>
</svg>
