<svg width="15" height="14" viewBox="0 0 15 14" fill="none" xmlns="http://www.w3.org/2000/svg">
<path d="M12.6504 2.875C13.6074 2.875 14.4004 3.66797 14.4004 4.625V11.625C14.4004 12.6094 13.6074 13.375 12.6504 13.375H2.15039C1.16602 13.375 0.400391 12.6094 0.400391 11.625V4.625C0.400391 3.66797 1.16602 2.875 2.15039 2.875H3.90039V2C3.90039 1.04297 4.66602 0.25 5.65039 0.25H9.15039C10.1074 0.25 10.9004 1.04297 10.9004 2V2.875H12.6504ZM5.65039 1.5625C5.4043 1.5625 5.21289 1.78125 5.21289 2V2.875H9.58789V2C9.58789 1.78125 9.36914 1.5625 9.15039 1.5625H5.65039ZM2.15039 4.1875C1.9043 4.1875 1.71289 4.40625 1.71289 4.625V7.25H13.0879V4.625C13.0879 4.40625 12.8691 4.1875 12.6504 4.1875H2.15039ZM12.6504 12.0625C12.8691 12.0625 13.0879 11.8711 13.0879 11.625V8.5625H9.15039V9C9.15039 9.49219 8.74023 9.875 8.27539 9.875H6.52539C6.0332 9.875 5.65039 9.49219 5.65039 9V8.5625H1.71289V11.625C1.71289 11.8711 1.9043 12.0625 2.15039 12.0625H12.6504Z" fill="#030712"/>
</svg>
