<svg width="15" height="15" viewBox="0 0 15 15" fill="none" xmlns="http://www.w3.org/2000/svg">
<path d="M7.36328 6.62109C8.29297 6.86719 9.85156 7.27734 9.55078 8.86328C9.41406 9.62891 8.75781 10.1484 7.85547 10.2852V10.75C7.85547 11.1328 7.55469 11.4062 7.19922 11.4062C6.81641 11.4062 6.54297 11.1328 6.54297 10.75V10.2578C6.13281 10.2031 5.75 10.0664 5.39453 9.95703L5.23047 9.90234C4.875 9.79297 4.71094 9.41016 4.82031 9.08203C4.92969 8.72656 5.28516 8.53516 5.64062 8.64453L5.80469 8.72656C6.13281 8.83594 6.51562 8.94531 6.81641 9C7.58203 9.10938 8.21094 8.94531 8.26562 8.61719C8.32031 8.34375 8.21094 8.20703 7.00781 7.90625L6.78906 7.82422C6.10547 7.66016 4.51953 7.22266 4.82031 5.66406C4.95703 4.89844 5.61328 4.37891 6.54297 4.24219V3.75C6.54297 3.39453 6.81641 3.09375 7.19922 3.09375C7.55469 3.09375 7.85547 3.39453 7.85547 3.75V4.26953C8.10156 4.29688 8.34766 4.37891 8.70312 4.46094C9.03125 4.59766 9.22266 4.95312 9.11328 5.30859C9.00391 5.63672 8.64844 5.82812 8.29297 5.71875C7.99219 5.63672 7.74609 5.55469 7.52734 5.52734C6.78906 5.41797 6.16016 5.58203 6.10547 5.91016C6.07812 6.10156 6.02344 6.26562 7.11719 6.56641L7.36328 6.62109ZM7.19922 0.25C11.0547 0.25 14.1992 3.39453 14.1992 7.25C14.1992 11.1328 11.0547 14.25 7.19922 14.25C3.31641 14.25 0.199219 11.1328 0.199219 7.25C0.199219 3.39453 3.31641 0.25 7.19922 0.25ZM7.19922 12.9375C10.3164 12.9375 12.8867 10.3945 12.8867 7.25C12.8867 4.13281 10.3164 1.5625 7.19922 1.5625C4.05469 1.5625 1.51172 4.13281 1.51172 7.25C1.51172 10.3945 4.05469 12.9375 7.19922 12.9375Z" fill="#030712"/>
</svg>
