<svg width="19" height="15" viewBox="0 0 19 15" fill="none" xmlns="http://www.w3.org/2000/svg">
    <path d="M16.0439 0.748107C17.2973 0.748107 18.3359 1.78666 18.3359 3.04009V12.208C18.3359 13.4973 17.2973 14.5 16.0439 14.5H2.29198C1.00274 14.5 0 13.4973 0 12.208V3.04009C0 1.78666 1.00274 0.748107 2.29198 0.748107H16.0439ZM2.29198 2.46709C1.96967 2.46709 1.71899 2.75359 1.71899 3.04009V3.86377L7.66382 8.80586C8.4875 9.48629 9.81255 9.48629 10.6362 8.80586L16.6169 3.86377V3.04009C16.6169 2.75359 16.3304 2.46709 16.0439 2.46709H2.29198ZM16.0439 12.781C16.3304 12.781 16.6169 12.5303 16.6169 12.208V6.08413L11.7106 10.1667C10.9944 10.7397 10.099 11.062 9.16793 11.062C8.201 11.062 7.30569 10.7397 6.58945 10.1667L1.71899 6.08413V12.208C1.71899 12.5303 1.96967 12.781 2.29198 12.781H16.0439Z" fill="#A3A3A3"/>
</svg>