<svg width="16" height="19" viewBox="0 0 16 19" fill="none" xmlns="http://www.w3.org/2000/svg">
<path d="M11.3555 2.07812C13.9219 4.43359 15.75 8.30078 15.75 10.1641C15.75 14.6289 12.1992 18.25 7.875 18.25C3.51562 18.25 0 14.6289 0 10.1641C0 7.63281 2.42578 3.48438 5.90625 0.25C7.24219 1.51562 8.4375 2.85156 9.38672 4.1875C9.98438 3.44922 10.6172 2.74609 11.3555 2.07812ZM7.875 16.5625C11.2852 16.5625 14.0625 13.7148 14.0625 10.1641C14.0625 9.07422 12.9375 6.50781 11.3203 4.50391C11.1094 4.75 10.8984 4.99609 10.6875 5.24219L9.31641 6.92969L8.01562 5.17188C7.41797 4.32812 6.67969 3.44922 5.90625 2.64062C3.23438 5.48828 1.6875 8.58203 1.6875 10.1641C1.6875 13.7148 4.46484 16.5625 7.875 16.5625ZM11.0039 8.82812C11.1445 9.03906 11.25 9.21484 11.3555 9.42578C12.1992 11.043 11.8477 13.082 10.3359 14.1367C9.66797 14.6289 8.82422 14.875 7.94531 14.875C5.73047 14.875 3.9375 13.4336 3.9375 11.043C3.9375 9.84766 4.67578 8.79297 6.15234 7C6.36328 7.24609 9.21094 10.8672 9.21094 10.8672L11.0039 8.82812Z" fill="#FF652E"/>
</svg>
