<svg width="12" height="15" viewBox="0 0 12 15" fill="none" xmlns="http://www.w3.org/2000/svg">
<path d="M6.05078 0.25C8.94922 0.25 11.3008 2.60156 11.3008 5.5C11.3008 7.63281 10.5625 8.20703 6.57031 13.9766C6.43359 14.168 6.24219 14.25 6.05078 14.25C5.83203 14.25 5.64062 14.168 5.50391 13.9766C1.51172 8.23438 0.800781 7.63281 0.800781 5.5C0.800781 2.60156 3.125 0.25 6.05078 0.25ZM6.05078 12.4453C6.51562 11.7617 6.95312 11.1328 7.33594 10.6133C9.71484 7.22266 9.98828 6.78516 9.98828 5.5C9.98828 3.33984 8.21094 1.5625 6.05078 1.5625C3.86328 1.5625 2.11328 3.33984 2.11328 5.5C2.11328 6.78516 2.35938 7.22266 4.73828 10.6133C5.12109 11.1328 5.55859 11.7617 6.05078 12.4453ZM6.05078 3.3125C7.25391 3.3125 8.23828 4.26953 8.23828 5.5C8.23828 6.70312 7.25391 7.6875 6.05078 7.6875C4.82031 7.6875 3.86328 6.70312 3.86328 5.5C3.86328 4.26953 4.82031 3.3125 6.05078 3.3125ZM6.05078 6.375C6.51562 6.375 6.92578 5.99219 6.92578 5.5C6.92578 5.03516 6.51562 4.625 6.05078 4.625C5.55859 4.625 5.17578 5.03516 5.17578 5.5C5.17578 5.99219 5.55859 6.375 6.05078 6.375Z" fill="#030712"/>
</svg>
