<svg width="16" height="14" viewBox="0 0 16 14" fill="none" xmlns="http://www.w3.org/2000/svg">
<path d="M11.6367 1.80859C15.1641 4.21484 15.4922 9.05469 12.6211 11.8984C11.3359 13.1836 9.66797 13.8398 8 13.8398C6.30469 13.8398 4.63672 13.1836 3.35156 11.8984C1.02734 9.60156 0.808594 5.99219 2.66797 3.42188C2.99609 2.95703 3.625 2.90234 4.03516 3.3125C4.33594 3.61328 4.33594 4.07812 4.08984 4.43359C2.72266 6.32031 2.88672 8.97266 4.55469 10.668C6.66016 12.7734 10.2695 12.5273 12.0195 9.875C13.0312 8.34375 13.0586 6.34766 12.0742 4.76172C11.3359 3.55859 10.1602 2.76562 8.84766 2.54688V3.33984C8.84766 3.85938 8.35547 4.26953 7.80859 4.1875C7.39844 4.13281 7.09766 3.72266 7.09766 3.28516V1.34375C7.09766 0.988281 7.39844 0.6875 7.75391 0.6875C9.12109 0.714844 10.5156 1.04297 11.6367 1.80859ZM7.53516 7.71484L5.34766 5.52734C5.10156 5.25391 5.10156 4.84375 5.34766 4.59766C5.62109 4.32422 6.03125 4.32422 6.27734 4.59766L8.4375 6.78516C8.71094 7.03125 8.71094 7.44141 8.4375 7.71484C8.32812 7.82422 8.16406 7.90625 7.97266 7.90625C7.80859 7.90625 7.64453 7.82422 7.53516 7.71484Z" fill="#030712"/>
</svg>
