<svg width="19" height="15" viewBox="0 0 19 15" fill="none" xmlns="http://www.w3.org/2000/svg">
<path d="M9.32227 9C7.76367 9 6.47852 7.74219 6.50586 6.15625C6.50586 4.59766 7.76367 3.3125 9.32227 3.3125C10.8809 3.3125 12.166 4.59766 12.166 6.15625C12.166 7.74219 10.9082 9 9.32227 9ZM9.32227 4.625C8.50195 4.625 7.79102 5.33594 7.79102 6.15625C7.79102 7.00391 8.50195 7.6875 9.32227 7.6875C10.1699 7.6875 10.8535 7.00391 10.8535 6.15625C10.8535 5.33594 10.1699 4.625 9.32227 4.625ZM14.5996 4.625C13.3691 4.625 12.4121 3.66797 12.4121 2.4375C12.4121 1.23438 13.3691 0.25 14.5996 0.25C15.8027 0.25 16.7871 1.23438 16.7871 2.4375C16.7871 3.66797 15.8027 4.625 14.5996 4.625ZM10.6895 9.875C12.8496 9.875 14.5996 11.5156 14.5996 13.5391C14.5996 13.9492 14.2441 14.25 13.8066 14.25H4.86523C4.42773 14.25 4.09961 13.9492 4.09961 13.5391C4.09961 11.5156 5.82227 9.875 7.98242 9.875H10.6895ZM5.4668 12.9375H13.2051C12.9043 11.9531 11.8926 11.1875 10.6895 11.1875H7.95508C6.75195 11.1875 5.74023 11.9531 5.4668 12.9375ZM15.666 5.5C17.0059 5.5 18.0996 6.64844 18.0996 8.07031C18.0996 8.34375 17.8809 8.5625 17.6074 8.5625H12.1387C12.7129 7.93359 13.041 7.08594 13.041 6.15625C13.041 6.01953 13.0137 5.88281 13.0137 5.74609C13.3145 5.60938 13.6426 5.5 13.998 5.5H15.666ZM5.60352 6.15625C5.60352 7.08594 5.95898 7.93359 6.5332 8.5625H1.06445C0.791016 8.5625 0.599609 8.34375 0.599609 8.07031C0.599609 6.64844 1.66602 5.5 3.00586 5.5H4.67383C5.0293 5.5 5.35742 5.58203 5.6582 5.74609C5.63086 5.88281 5.60352 6.01953 5.60352 6.15625ZM4.09961 4.625C2.86914 4.625 1.91211 3.66797 1.91211 2.4375C1.91211 1.23438 2.86914 0.25 4.09961 0.25C5.30273 0.25 6.28711 1.23438 6.28711 2.4375C6.28711 3.66797 5.30273 4.625 4.09961 4.625Z" fill="#030712"/>
</svg>
